<svg id="Layer_1" data-name="Layer 1" xmlns="http://www.w3.org/2000/svg" viewBox="0 0 1203.32 1133.71"><defs><style>.cls-1{fill:#222e3e;}</style></defs><title>background-pattern</title><path class="cls-1" d="M1499.06,1095.21c-12.15-8.57-10-27.35,2-32.43,8.92-4,19.4,1.15,20.69,9.62,1.86,10.11-8.51,17.6-16,12-4.29-3-4.37-9.06-.65-10.36.34,13.26,13.37,7.35,10.68-.29-1.3-4.24-7-6.13-11.19-3.78-5.5,3-6.43,13.07.18,17.19C1510.24,1090.64,1504.87,1099.3,1499.06,1095.21Z" transform="translate(-360.43 30)"/><path class="cls-1" d="M1428.31,1061.55c8.11,7.89,4.25,21.75-5.33,24.16-7.18,1.94-14.45-3.18-14.41-9.7-.19-7.82,8.49-12.22,13.49-7.12,2.88,2.75,2.22,7.33-.74,7.86,1.32-10-9.18-7.11-8.06-1,.48,3.35,4.53,5.45,8,4.17,4.49-1.57,6.39-9.06,1.92-12.94C1419.36,1063.66,1424.43,1057.78,1428.31,1061.55Z" transform="translate(-360.43 30)"/><path class="cls-1" d="M1341.07,1058.39c13.7,3.31,18.34,20.63,9.59,29.27-6.47,6.63-17.5,5.75-21.59-1.26-5.17-8.27,1.36-18.48,10-16.19,4.83,1.13,7,6.46,4.19,8.91-4.92-11.57-14.35-1.82-9.31,4,2.63,3.29,8.31,3,11.18-.57,3.82-4.53,1.11-13.76-6.15-15.09C1332.81,1066.32,1334.52,1056.8,1341.07,1058.39Z" transform="translate(-360.43 30)"/><path class="cls-1" d="M1268.72,1085c-12.85,3.33-24.39-9-21-20,2.42-8.38,12-12.55,18.49-8.55,8,4.57,7.08,15.95-1.08,17.87-4.5,1.21-8.69-2.25-7.43-5.54,9.23,7.42,12.72-4.86,6-7.44-3.64-1.56-8.22,1.23-9,5.45-1.16,5.46,5.2,11.92,11.81,9.79C1272.05,1074.73,1274.86,1083.39,1268.72,1085Z" transform="translate(-360.43 30)"/><path class="cls-1" d="M1184,1068.49c-4.34,8.07-16,8.13-20,1.21-3.1-5.16-.73-12,4.35-13.37,6-1.88,11.4,3.9,8.54,8.93-1.5,2.85-5.22,3.35-6.29,1.17,8.09-1.19,3.51-8.73-1-6.52-2.5,1.12-3.23,4.74-1.48,7.13,2.22,3.15,8.47,3,10.5-1.38C1180.33,1062,1186,1064.64,1184,1068.49Z" transform="translate(-360.43 30)"/><path class="cls-1" d="M1077.85,1071.94c12.69,4,16,20.58,7.18,28.17-6.51,5.83-16.84,4.3-20.25-2.56-4.34-8.11,2.45-17.31,10.4-14.61,4.47,1.36,6.2,6.53,3.38,8.65-3.9-11.21-13.4-2.62-9,3.15,2.27,3.27,7.64,3.32,10.57.18,3.88-4,1.91-12.89-4.84-14.6C1069.57,1078.88,1071.79,1070,1077.85,1071.94Z" transform="translate(-360.43 30)"/><path class="cls-1" d="M1006,1061.28c9.29,5.33,9,19,.77,23.39-6.12,3.46-14,.47-15.48-5.52-2-7.12,4.93-13.18,10.71-9.68,3.28,1.84,3.74,6.2,1.16,7.38-1.13-9.48-10.08-4.37-7.64.92,1.22,3,5.43,3.93,8.28,2,3.75-2.5,3.73-9.81-1.28-12.32C998.29,1065.31,1001.57,1058.74,1006,1061.28Z" transform="translate(-360.43 30)"/><path class="cls-1" d="M930.84,1055.35c11.66,5.91,12.16,22.53,2.42,28.47-7.25,4.6-17,1.46-19.22-5.74-2.9-8.57,5.16-16.4,12.43-12.5,4.12,2.05,5,7.33,1.89,8.94-2-11.5-12.57-4.7-9.26,1.6,1.68,3.53,6.88,4.45,10.22,1.87,4.41-3.28,3.93-12.19-2.34-14.93C921.69,1060.75,925.27,1052.52,930.84,1055.35Z" transform="translate(-360.43 30)"/><path class="cls-1" d="M854.43,1081.41c-8.17,10.46-24.83,7.71-28.84-3.15-3.18-8.12,1.87-17.24,9.47-18,9.1-1.21,15.33,8.35,10,14.83-2.84,3.7-8.27,3.51-9.27.13,11.84.28,7.14-11.6.21-9.53-3.84,1-5.78,6-3.86,9.81,2.41,5,11.38,6.3,15.34.59C850.83,1071.24,858.33,1076.41,854.43,1081.41Z" transform="translate(-360.43 30)"/><path class="cls-1" d="M747.14,1064.9c11.14,2.34,15.3,16.2,8.46,23.39-5.06,5.51-14,5.07-17.46-.48-4.37-6.55.64-15,7.64-13.32,3.92.79,5.82,5,3.6,7.09-4.26-9.22-11.63-1.12-7.42,3.44,2.2,2.59,6.78,2.19,9-.74,3-3.75.56-11.13-5.33-12C740.67,1071.5,741.82,1063.79,747.14,1064.9Z" transform="translate(-360.43 30)"/><path class="cls-1" d="M684,1056.68c5.5,8.84-1,20.36-10.09,20.39-6.84.14-12.19-6-10.72-11.84,1.56-7,10.28-9,13.62-3.38,2,3.09.36,7-2.4,6.86,3.39-8.64-6.62-8.38-7-2.72-.32,3.09,2.84,5.86,6.18,5.48,4.36-.41,7.71-6.67,4.57-11.13C675.55,1056.59,681.38,1052.46,684,1056.68Z" transform="translate(-360.43 30)"/><path class="cls-1" d="M602.07,1062.77c1.32,10.93-10.08,19-18.79,15-6.61-2.92-9-11.23-5-16.14,4.64-6,13.9-4.06,14.57,2.86.49,3.83-2.81,6.9-5.37,5.49,7.11-6.76-2.59-11-5.46-5.72-1.68,2.82.11,6.89,3.48,8,4.35,1.56,10.37-3,9.35-8.62C594,1058.9,601.44,1057.55,602.07,1062.77Z" transform="translate(-360.43 30)"/><path class="cls-1" d="M495.91,1089.93c-10.2-5.36-10.42-20-1.77-25.11,6.44-4,15-1.07,16.86,5.3,2.44,7.58-4.76,14.38-11.12,10.85-3.6-1.86-4.27-6.52-1.54-7.89,1.59,10.14,11,4.29,8.17-1.3-1.43-3.13-6-4-9-1.78-3.93,2.83-3.63,10.69,1.86,13.18C504,1085.29,500.78,1092.48,495.91,1089.93Z" transform="translate(-360.43 30)"/><path class="cls-1" d="M427.16,1080.67c-8.85,4.93-19.74-1.94-19.35-10.77.18-6.65,6.43-11.57,12-9.87,6.76,1.85,8.3,10.42,2.65,13.41-3.1,1.76-6.86,0-6.56-2.66,8.24,3.7,8.46-6,3-6.64-3-.45-5.83,2.49-5.62,5.75.2,4.26,6.13,7.81,10.61,5C427.64,1072.46,431.38,1078.31,427.16,1080.67Z" transform="translate(-360.43 30)"/><path class="cls-1" d="M1560.18,995.69c-1.92,13.91-18.61,20.23-28,12.43-7.21-5.75-7.44-16.77-.9-21.52,7.68-5.94,18.45-.5,17,8.25-.63,4.89-5.7,7.59-8.4,5,11-6,.37-14.39-4.87-8.83-3,2.94-2.11,8.54,1.68,11,4.87,3.33,13.74-.28,14.33-7.6C1551.5,988.3,1561.09,989.05,1560.18,995.69Z" transform="translate(-360.43 30)"/><path class="cls-1" d="M1459,996.9c-8.37-5.2-7.66-17.72,0-21.55,5.75-3,12.89,0,14.07,5.57,1.62,6.63-4.95,12-10.16,8.58-3-1.81-3.25-5.83-.83-6.84.74,8.77,9.13,4.35,7.06-.6-1-2.76-4.87-3.79-7.56-2.07-3.52,2.17-3.75,8.9.78,11.37C1466.23,993.44,1463,999.38,1459,996.9Z" transform="translate(-360.43 30)"/><path class="cls-1" d="M1355.81,999.21c-.3-8.35,8.86-13.76,15.19-10.15,4.82,2.64,6.07,9.08,2.72,12.54-3.9,4.27-10.77,2.17-10.83-3.11-.13-2.93,2.57-5,4.41-3.81-5.82,4.66,1.26,8.49,3.76,4.69,1.46-2,.37-5.23-2.11-6.3-3.2-1.46-8,1.56-7.64,5.92C1361.65,1002.67,1356,1003.2,1355.81,999.21Z" transform="translate(-360.43 30)"/><path class="cls-1" d="M1302.32,1004.4c-12.67-.23-20.14-14.51-14.16-23.81,4.38-7.09,14.23-8.48,19.2-3.13,6.15,6.24,2.43,16.49-5.56,16.16-4.46,0-7.43-4.29-5.42-7,6.59,9.18,12.94-1.23,7.39-5.32-3-2.37-7.88-1-9.71,2.69-2.46,4.73,1.73,12.3,8.36,12C1308,995.82,1308.38,1004.5,1302.32,1004.4Z" transform="translate(-360.43 30)"/><path class="cls-1" d="M1199.19,1003.49c-4.83-13.45,7.24-27,19.44-24.45,9.23,1.78,14.63,11.62,11,19-4.13,9-16.42,9.15-19.27.59-1.74-4.71,1.56-9.55,5.21-8.51-7.06,10.62,6.46,13.17,8.56,5.67,1.32-4.06-2.12-8.7-6.72-9.16-6-.7-12.28,6.74-9.35,13.63C1210.51,1006.07,1201.5,1009.92,1199.19,1003.49Z" transform="translate(-360.43 30)"/><path class="cls-1" d="M1137.3,1005.2c-12.73,1.87-22.57-11.19-18.12-21.49,3.21-7.82,12.85-10.85,18.71-6.31,7.19,5.24,5.15,16.11-2.9,17.1-4.47.7-8.15-3.07-6.59-6.11,8.12,8.11,12.77-3.36,6.52-6.54-3.34-1.88-8,.33-9.26,4.3-1.69,5.14,3.76,12,10.35,10.67C1141.58,995.67,1143.37,1004.31,1137.3,1005.2Z" transform="translate(-360.43 30)"/><path class="cls-1" d="M1052,1011.12c-15.26-3.84-20.27-23.21-10.43-32.77,7.28-7.34,19.59-6.26,24.09,1.61,5.69,9.28-1.69,20.62-11.27,18-5.37-1.3-7.77-7.28-4.59-10,5.39,13,16,2.16,10.44-4.36-2.91-3.69-9.26-3.39-12.49.53-4.31,5-1.37,15.36,6.72,16.91C1061.32,1002.34,1059.31,1013,1052,1011.12Z" transform="translate(-360.43 30)"/><path class="cls-1" d="M976.9,992.43c-6.84,8.79-20.82,6.51-24.21-2.59-2.68-6.81,1.54-14.48,7.92-15.15,7.64-1,12.88,7,8.43,12.43-2.37,3.11-6.93,3-7.77.12,9.93.21,6-9.74.16-8-3.23.83-4.84,5-3.22,8.25,2,4.22,9.55,5.26,12.86.46C973.87,983.9,980.16,988.23,976.9,992.43Z" transform="translate(-360.43 30)"/><path class="cls-1" d="M870.76,1006.64c-9.53-.72-14.52-11.79-9.62-18.53,3.6-5.14,11.08-5.75,14.58-1.51,4.36,5,1.11,12.51-4.89,11.91-3.35-.22-5.4-3.55-3.77-5.5,4.55,7.2,9.79-.35,5.79-3.67-2.12-1.91-5.88-1.08-7.42,1.6-2,3.45.77,9.33,5.76,9.42C875.41,1000.44,875.31,1007,870.76,1006.64Z" transform="translate(-360.43 30)"/><path class="cls-1" d="M806.54,985c4.15,12.31-7.06,24.44-18.1,21.88-8.35-1.77-13.09-10.81-9.64-17.45,3.9-8.09,15.07-8,17.52-.21,1.49,4.32-1.58,8.65-4.88,7.65,6.59-9.53-5.65-12.08-7.69-5.3-1.26,3.67,1.78,7.94,6,8.44,5.41.74,11.28-5.92,8.73-12.22C796.29,982.48,804.55,979.14,806.54,985Z" transform="translate(-360.43 30)"/><path class="cls-1" d="M697.93,1023.05c-13-9-10.9-29,1.74-34.52,9.44-4.34,20.64,1,22.11,10,2.08,10.74-8.87,18.81-16.95,13-4.6-3.12-4.75-9.59-.8-11,.5,14.1,14.3,7.68,11.35-.42-1.43-4.5-7.51-6.45-11.94-3.9-5.82,3.21-6.7,14,.37,18.28C709.77,1018.07,704.15,1027.34,697.93,1023.05Z" transform="translate(-360.43 30)"/><path class="cls-1" d="M653,988.29c-.38,16-18.52,25.38-30.25,17.75-8.93-5.6-10.62-18.08-3.81-24.33,7.95-7.74,20.89-3,20.41,7.17-.08,5.63-5.49,9.36-8.89,6.8,11.68-8.27-1.45-16.39-6.67-9.39-3,3.72-1.3,10,3.33,12.3,6,3.15,15.58-2.09,15.3-10.49C642.21,981,653.21,980.63,653,988.29Z" transform="translate(-360.43 30)"/><path class="cls-1" d="M558.55,1001c-3.51,14.47-21.81,19.36-30.93,10.12-7-6.84-6.06-18.49,1.34-22.81,8.75-5.45,19.53,1.45,17.1,10.53-1.19,5.09-6.83,7.41-9.41,4.42,12.23-5.2,1.93-15.16-4.2-9.84-3.47,2.77-3.13,8.78.6,11.81,4.79,4,14.54,1.18,15.94-6.49C550.18,992.26,560.23,994.08,558.55,1001Z" transform="translate(-360.43 30)"/><path class="cls-1" d="M443,999.76c-3.55-8.13,3.36-17,11-16,5.78.72,9.54,6.58,7.59,11.3-2.18,5.74-9.78,6.36-11.91,1.18-1.27-2.85.57-6,2.87-5.49-3.92,6.87,4.55,7.88,5.54,3.15.65-2.57-1.68-5.3-4.54-5.39-3.73-.19-7.32,4.69-5.22,8.83C450.13,1000.88,444.71,1003.64,443,999.76Z" transform="translate(-360.43 30)"/><path class="cls-1" d="M362.82,1005.12c-4.05-14.57,9.76-28,22.43-24.28,9.59,2.6,14.53,13.4,10.09,20.9-5,9.16-18,8.37-20.37-.88-1.47-5.11,2.39-10,6.16-8.58-8.27,10.66,5.79,14.4,8.59,6.66,1.71-4.19-1.56-9.35-6.37-10.19-6.25-1.21-13.49,6.15-10.94,13.64C374.57,1008.72,364.75,1012.08,362.82,1005.12Z" transform="translate(-360.43 30)"/><path class="cls-1" d="M1524.33,907.68c-2.42,14-19.52,19.8-28.79,11.58-7.1-6.06-6.94-17.21-.16-21.79,8-5.74,18.67.14,16.93,8.94-.81,4.92-6,7.48-8.67,4.8,11.3-5.72.87-14.55-4.62-9.1-3.13,2.86-2.43,8.55,1.31,11.2,4.81,3.54,13.92.21,14.77-7.18C1515.81,899.9,1525.49,901,1524.33,907.68Z" transform="translate(-360.43 30)"/><path class="cls-1" d="M1442.42,910.75c-4.21,14.22-22.65,18.18-31.27,8.53-6.63-7.15-5.12-18.69,2.47-22.63,9-5,19.35,2.41,16.48,11.33-1.43,5-7.16,7-9.58,3.93,12.42-4.57,2.67-15-3.68-10-3.6,2.59-3.56,8.58,0,11.78,4.56,4.25,14.41,1.9,16.19-5.66C1434.53,901.65,1444.43,904,1442.42,910.75Z" transform="translate(-360.43 30)"/><path class="cls-1" d="M1314.39,919.53c.07-11.85,13.35-19,22.11-13.5,6.67,4,8.08,13.22,3.13,17.92-5.77,5.82-15.39,2.45-15.17-5,0-4.16,3.93-7,6.48-5.14-8.52,6.26,1.28,12.09,5,6.85,2.19-2.79.83-7.37-2.62-9-4.45-2.25-11.48,1.75-11.16,7.94C1322.48,924.76,1314.36,925.19,1314.39,919.53Z" transform="translate(-360.43 30)"/><path class="cls-1" d="M1261.79,909c-6.53,6.32-17.56,2.88-19.26-4.87-1.38-5.81,2.9-11.52,8.14-11.33,6.28,0,9.6,7.12,5.39,11-2.28,2.24-5.94,1.6-6.3-.79,8,1.31,5.94-7.19,1-6.45-2.7.31-4.48,3.51-3.54,6.3,1.15,3.64,7.12,5.35,10.34,1.85C1260.32,901.79,1264.91,906,1261.79,909Z" transform="translate(-360.43 30)"/><path class="cls-1" d="M1157.14,915.9c-5-9.13,2.19-20.24,11.24-19.75,6.83.25,11.81,6.72,10,12.43-2,6.92-10.77,8.41-13.78,2.58-1.78-3.2.05-7,2.79-6.7-3.88,8.42,6.12,8.74,6.79,3.12.49-3.07-2.5-6-5.85-5.83-4.37.16-8.07,6.21-5.2,10.83C1165.56,916.48,1159.52,920.26,1157.14,915.9Z" transform="translate(-360.43 30)"/><path class="cls-1" d="M1086.76,895.45c13.57,3.36,18.07,20.56,9.35,29.08-6.45,6.53-17.38,5.6-21.4-1.37-5.07-8.23,1.45-18.32,10-16,4.78,1.14,6.92,6.44,4.1,8.85-4.81-11.49-14.21-1.88-9.25,3.9,2.59,3.27,8.23,3,11.09-.51,3.81-4.47,1.17-13.64-6-15C1078.53,903.27,1080.28,893.85,1086.76,895.45Z" transform="translate(-360.43 30)"/><path class="cls-1" d="M1006.32,904.16c8.12,9.85,2.07,24.93-9,26.44-8.3,1.29-15.82-5.35-15-12.66.76-8.81,11-12.66,16-6.32,2.88,3.44,1.57,8.5-1.81,8.73,2.72-11.06-9.42-9.12-8.92-2.18.12,3.81,4.42,6.67,8.42,5.67,5.23-1.21,8.29-9.38,3.75-14.28C996,905.41,1002.43,899.45,1006.32,904.16Z" transform="translate(-360.43 30)"/><path class="cls-1" d="M924.71,917.47c-4.24,10.63-18.7,12.36-24.64,4.33-4.58-6-2.6-14.73,3.51-17.21,7.24-3.2,14.7,3.22,11.87,9.87-1.47,3.75-6,4.9-7.65,2.34,9.87-2.62,3.12-11.33-2.12-7.95-2.95,1.74-3.35,6.35-.83,9.06,3.2,3.59,10.94,2.48,12.84-3.2C919.29,909.91,926.74,912.39,924.71,917.47Z" transform="translate(-360.43 30)"/><path class="cls-1" d="M841.26,893.77c9.82,5.93,9.16,20.51.26,25.07-6.65,3.55-15,.16-16.45-6.28-2-7.69,5.59-14,11.7-10.12,3.47,2.06,3.86,6.73,1.06,7.94-1-10.19-10.68-4.94-8.2.8,1.24,3.19,5.72,4.34,8.82,2.3,4.07-2.58,4.24-10.41-1.07-13.22C832.9,897.89,836.57,890.93,841.26,893.77Z" transform="translate(-360.43 30)"/><path class="cls-1" d="M745,936.28c-13.59-4.65-16.67-22.65-7-30.6,7.18-6.12,18.29-4.19,21.79,3.31,4.46,8.87-3.11,18.62-11.62,15.49-4.79-1.59-6.51-7.21-3.41-9.43,3.91,12.2,14.39,3.19,9.82-3.16-2.36-3.58-8.16-3.79-11.4-.47-4.3,4.24-2.41,13.86,4.83,15.88C754.11,929,751.48,938.5,745,936.28Z" transform="translate(-360.43 30)"/><path class="cls-1" d="M663.42,920c-9.37-6.93-7.33-21.62,2.12-25.39,7.06-3,15.18,1.26,16,7.91,1.27,8-7,13.64-12.8,9.13-3.31-2.41-3.26-7.18-.32-8.13,0,10.4,10.35,6,8.37,0-.94-3.35-5.37-4.94-8.7-3.17-4.37,2.23-5.27,10.13-.17,13.48C672.27,916.58,667.9,923.27,663.42,920Z" transform="translate(-360.43 30)"/><path class="cls-1" d="M575.07,923.81c-8.11-11.21-.54-27.07,11.49-27.95,9.05-.82,16.72,6.86,15.3,14.7-1.42,9.46-12.79,12.92-17.74,5.73-2.88-3.91-1.12-9.29,2.55-9.31-3.7,11.77,9.55,10.5,9.48,3,.13-4.13-4.31-7.51-8.7-6.7-5.74,1-9.6,9.56-5,15.17C586.28,923.15,578.94,929.16,575.07,923.81Z" transform="translate(-360.43 30)"/><path class="cls-1" d="M509.77,898.78c13.15,8.64,11.51,28.58-.93,34.37-9.29,4.54-20.56-.54-22.22-9.45-2.31-10.63,8.38-18.91,16.56-13.26,4.64,3,4.94,9.42,1,10.93-.82-14-14.39-7.31-11.28.68,1.53,4.44,7.62,6.24,12,3.6,5.72-3.32,6.34-14-.79-18.17C498.11,904,503.49,894.65,509.77,898.78Z" transform="translate(-360.43 30)"/><path class="cls-1" d="M433.73,921.32c-14,2.33-25.14-11.89-20.45-23.35,3.39-8.7,14-12.24,20.52-7.35,8.05,5.63,6,17.67-2.84,18.93-4.92.86-9.06-3.22-7.4-6.6,9.13,8.78,14-4,7.07-7.36-3.74-2-8.88.53-10.15,4.94-1.75,5.71,4.41,13.2,11.66,11.56C438.26,910.71,440.42,920.2,433.73,921.32Z" transform="translate(-360.43 30)"/><path class="cls-1" d="M1525.83,830.08c.12-9.45,10.74-15.08,17.7-10.66,5.3,3.23,6.38,10.58,2.41,14.3-4.63,4.62-12.29,1.88-12.08-4.08,0-3.32,3.18-5.55,5.2-4.07-6.83,4.95,1,9.65,4,5.49,1.76-2.21.7-5.88-2-7.22-3.54-1.82-9.17,1.33-9,6.28C1532.25,834.29,1525.78,834.59,1525.83,830.08Z" transform="translate(-360.43 30)"/><path class="cls-1" d="M1444.79,830.41c3.16-14.15,20.89-19.23,29.93-10.39,6.94,6.53,6.23,17.89-.91,22.23-8.41,5.46-19-1.07-16.83-10,1.08-5,6.52-7.33,9.09-4.47-11.81,5.27-1.61,14.79,4.26,9.51,3.33-2.77,2.9-8.6-.79-11.49-4.73-3.85-14.18-.9-15.41,6.59C1453.09,838.76,1443.28,837.17,1444.79,830.41Z" transform="translate(-360.43 30)"/><path class="cls-1" d="M1372.46,839.54c-10.16-7.57-7.9-23.51,2.37-27.57,7.68-3.21,16.49,1.41,17.4,8.64,1.36,8.65-7.63,14.8-13.92,9.88-3.6-2.63-3.53-7.81-.33-8.84,0,11.3,11.22,6.55,9.1,0-1-3.64-5.83-5.38-9.45-3.46-4.75,2.4-5.76,11-.23,14.63C1382.07,835.89,1377.31,843.15,1372.46,839.54Z" transform="translate(-360.43 30)"/><path class="cls-1" d="M1282,844.28c-9.62-5-9.88-18.81-1.74-23.65,6.06-3.76,14.14-1.06,15.9,4.94,2.33,7.14-4.44,13.56-10.44,10.25-3.4-1.73-4-6.12-1.48-7.43,1.54,9.56,10.39,4,7.7-1.25-1.36-2.94-5.67-3.75-8.46-1.64-3.7,2.68-3.38,10.08,1.8,12.41C1289.67,839.88,1286.62,846.67,1282,844.28Z" transform="translate(-360.43 30)"/><path class="cls-1" d="M1227.78,821.45c-3.58,10.65-17.65,13.13-23.9,5.59-4.82-5.59-3.35-14.29,2.49-17,6.93-3.53,14.58,2.36,12.17,9-1.23,3.75-5.62,5.13-7.36,2.71,9.52-3.11,2.43-11.27-2.52-7.67-2.79,1.86-2.93,6.4-.32,8.92,3.34,3.34,10.85,1.83,12.41-3.84C1222.06,814.35,1229.49,816.36,1227.78,821.45Z" transform="translate(-360.43 30)"/><path class="cls-1" d="M1133.13,843c-11.44,5.09-24.09-4.58-22.63-15.4,1-8.17,9.2-13.54,15.88-10.82,8.12,3,9.07,13.74,1.77,16.79-4,1.82-8.44-.74-7.77-4,9.74,5.47,11.08-6.5,4.39-7.85-3.63-.88-7.46,2.43-7.56,6.47-.23,5.26,6.69,10.29,12.51,7.28C1134.64,833,1138.59,840.58,1133.13,843Z" transform="translate(-360.43 30)"/><path class="cls-1" d="M1033.16,821.91c8.86,3.69,10.13,15.84,3.32,20.72-5.06,3.77-12.39,2-14.39-3.16-2.59-6.12,2.89-12.29,8.43-9.83,3.13,1.27,4,5.1,1.86,6.44-2.07-8.31-9.46-2.76-6.69,1.68,1.42,2.49,5.28,2.89,7.59.81,3-2.64,2.22-9.14-2.52-10.81C1026.75,826.36,1028.92,820.14,1033.16,821.91Z" transform="translate(-360.43 30)"/><path class="cls-1" d="M945.18,826.94c.62-10.21,12.39-15.73,19.67-10.59,5.56,3.78,6.34,11.77,1.86,15.58-5.25,4.74-13.37,1.39-12.83-5,.19-3.59,3.72-5.84,5.82-4.13-7.63,5,.54,10.48,4,6.14,2-2.29,1.06-6.31-1.83-7.91-3.73-2.14-10,1-10,6.32C951.89,831.82,944.88,831.81,945.18,826.94Z" transform="translate(-360.43 30)"/><path class="cls-1" d="M871.94,814.72c8.75,3,10.78,14.54,4.57,19.68-4.61,4-11.76,2.74-14-2.08-2.9-5.7,2-12,7.44-10,3.08,1,4.21,4.63,2.22,6.06-2.55-7.84-9.27-2-6.32,2.06,1.53,2.3,5.26,2.42,7.34.28,2.76-2.74,1.52-8.93-3.14-10.21C866.08,819.42,867.75,813.31,871.94,814.72Z" transform="translate(-360.43 30)"/><path class="cls-1" d="M788.48,844.67c-11.81-6.92-11.28-24.32-.73-29.91,7.88-4.36,17.89-.45,19.74,7.21,2.48,9.14-6.44,16.82-13.8,12.28-4.17-2.4-4.72-8-1.4-9.46,1.34,12.14,12.84,5.71,9.78-1.09-1.53-3.8-6.91-5.09-10.56-2.6-4.83,3.14-4.89,12.49,1.49,15.75C798.39,839.61,794.13,848,788.48,844.67Z" transform="translate(-360.43 30)"/><path class="cls-1" d="M700.08,843.54c-9.64-9.3-5.14-25.73,6.19-28.62,8.49-2.34,17.12,3.68,17.11,11.4.27,9.27-10,14.51-15.94,8.5-3.42-3.24-2.66-8.67.84-9.31-1.52,11.85,10.9,8.38,9.55,1.2-.58-4-5.4-6.42-9.45-4.9-5.31,1.89-7.52,10.76-2.2,15.33C710.67,841,704.69,848,700.08,843.54Z" transform="translate(-360.43 30)"/><path class="cls-1" d="M634.06,827.22c-3.32,9.54-16,11.63-21.55,4.79-4.28-5.08-2.87-12.89,2.41-15.32,6.27-3.1,13.09,2.27,10.85,8.24-1.14,3.37-5.1,4.56-6.64,2.37,8.6-2.7,2.3-10.11-2.19-6.93-2.53,1.65-2.7,5.72-.38,8,3,3,9.75,1.76,11.2-3.33C629,820.77,635.65,822.67,634.06,827.22Z" transform="translate(-360.43 30)"/><path class="cls-1" d="M536.76,815.05c10.46,1.86,14.75,14.67,8.57,21.57-4.56,5.29-12.9,5.13-16.3,0-4.26-6,.17-14,6.74-12.64,3.68.63,5.58,4.54,3.56,6.51-4.23-8.48-10.87-.71-6.82,3.42,2.13,2.35,6.39,1.85,8.39-.94,2.66-3.59.19-10.41-5.32-11.07C530.92,821.39,531.77,814.16,536.76,815.05Z" transform="translate(-360.43 30)"/><path class="cls-1" d="M478.81,807.39c9.24,10.42,3.23,27.08-8.74,29.15-9,1.73-17.44-5.21-16.8-13.21.48-9.62,11.54-14.22,17.21-7.51,3.28,3.64,2,9.2-1.63,9.59,2.54-12.16-10.61-9.57-9.79-2,.27,4.15,5.06,7.1,9.39,5.85,5.65-1.52,8.66-10.54,3.53-15.71C467.64,809.16,474.4,802.41,478.81,807.39Z" transform="translate(-360.43 30)"/><path class="cls-1" d="M398.94,812.48c4.14,13.82-8.77,26.85-20.92,23.59-9.19-2.29-14.11-12.5-10-19.73,4.65-8.83,17-8.34,19.45.44,1.49,4.84-2.09,9.53-5.71,8.29,7.68-10.32-5.8-13.61-8.32-6.17-1.55,4,1.67,8.88,6.27,9.59,6,1,12.74-6.13,10.16-13.22C387.67,809.28,397,805.88,398.94,812.48Z" transform="translate(-360.43 30)"/><path class="cls-1" d="M1521.44,725.77c7.78,11.06.16,26.47-11.61,27.17-8.85.69-16.25-6.93-14.76-14.57,1.51-9.23,12.68-12.46,17.42-5.37,2.77,3.86,1,9.09-2.62,9.07,3.78-11.46-9.19-10.39-9.23-3-.18,4,4.12,7.4,8.42,6.67,5.62-.85,9.51-9.22,5.12-14.77C1510.47,726.26,1517.73,720.49,1521.44,725.77Z" transform="translate(-360.43 30)"/><path class="cls-1" d="M1410.25,734.5c8.47,2.58,10.74,13.61,5,18.71-4.3,3.92-11.19,3-13.5-1.58-2.94-5.38,1.53-11.54,6.83-9.79,3,.88,4.17,4.31,2.3,5.74-2.66-7.44-8.93-1.67-6,2.15,1.53,2.16,5.11,2.16,7,0,2.56-2.7,1.2-8.59-3.3-9.69C1404.78,739.17,1406.2,733.27,1410.25,734.5Z" transform="translate(-360.43 30)"/><path class="cls-1" d="M1329.34,736.82c3.22-13.86,20.65-18.7,29.46-10,6.75,6.47,6,17.61-1.07,21.81-8.3,5.29-18.67-1.2-16.44-9.9,1.09-4.88,6.46-7.14,9-4.31-11.63,5.08-1.7,14.5,4.11,9.37,3.29-2.69,2.91-8.43-.69-11.29-4.61-3.81-13.9-1-15.17,6.35C1337.42,745.08,1327.8,743.44,1329.34,736.82Z" transform="translate(-360.43 30)"/><path class="cls-1" d="M1257.78,743c-8.87-.1-14.16-10.07-10-16.6,3-5,9.92-6,13.43-2.28,4.33,4.35,1.77,11.53-3.83,11.34-3.12,0-5.21-3-3.82-4.87,4.65,6.4,9.06-.91,5.15-3.76-2.08-1.64-5.52-.64-6.78,1.93-1.7,3.32,1.26,8.6,5.9,8.39C1261.73,737,1262,743,1257.78,743Z" transform="translate(-360.43 30)"/><path class="cls-1" d="M1179.72,723.78c4.93,7.24-.16,17.14-7.79,17.48-5.74.35-10.45-4.65-9.42-9.59,1.08-6,8.34-7.94,11.34-3.3,1.75,2.53.54,5.9-1.78,5.85,2.55-7.38-5.85-6.82-6-2.06-.16,2.61,2.59,4.84,5.39,4.41,3.65-.5,6.25-5.88,3.46-9.52C1172.61,724,1177.37,720.32,1179.72,723.78Z" transform="translate(-360.43 30)"/><path class="cls-1" d="M1090.16,751.08c-8.49,5.33-19.62-.91-19.68-9.66-.16-6.59,5.77-11.77,11.38-10.37,6.78,1.48,8.74,9.87,3.3,13.12-3,1.89-6.78.36-6.62-2.3,8.34,3.24,8-6.4,2.6-6.72-3-.29-5.64,2.76-5.27,6,.41,4.2,6.46,7.41,10.75,4.37C1090.23,742.93,1094.22,748.53,1090.16,751.08Z" transform="translate(-360.43 30)"/><path class="cls-1" d="M995.56,758.22c-9.71.18-15.81-10.55-11.49-17.83,3.16-5.55,10.66-6.88,14.61-2.92,4.88,4.61,2.31,12.55-3.82,12.52-3.41.09-5.8-3.08-4.34-5.2,5.3,6.85,9.88-1.29,5.52-4.28-2.33-1.73-6.06-.53-7.36,2.33-1.75,3.69,1.66,9.37,6.73,9C999.68,751.5,1000.2,758.14,995.56,758.22Z" transform="translate(-360.43 30)"/><path class="cls-1" d="M927.91,762.93c-10.53,9.7-27.77,3.84-30.14-8.43-1.95-9.2,5-18,13.26-17.52,9.9.31,14.84,11.58,8.05,17.55-3.67,3.44-9.42,2.28-9.88-1.49,12.55,2.37,9.63-11.1,1.89-10.12-4.26.37-7.2,5.35-5.83,9.77,1.67,5.79,11,8.71,16.22,3.33C925.88,751.47,933,758.29,927.91,762.93Z" transform="translate(-360.43 30)"/><path class="cls-1" d="M836.39,735c7.49,7.74,3.41,20.81-5.76,22.82-6.89,1.63-13.65-3.44-13.43-9.64,0-7.45,8.43-11.38,13-6.38,2.66,2.69,1.9,7-.93,7.45,1.55-9.47-8.52-7-7.64-1.23.36,3.19,4.16,5.31,7.45,4.2,4.32-1.37,6.34-8.43,2.2-12.25C827.82,736.73,832.81,731.29,836.39,735Z" transform="translate(-360.43 30)"/><path class="cls-1" d="M750.4,728.65c12.73,2.27,18,17.87,10.44,26.28-5.55,6.44-15.71,6.26-19.86.06-5.19-7.28.21-17,8.21-15.39,4.49.76,6.8,5.52,4.34,7.92-5.16-10.32-13.25-.85-8.31,4.17,2.6,2.86,7.79,2.25,10.22-1.15,3.24-4.37.24-12.67-6.49-13.48C743.28,736.38,744.31,727.57,750.4,728.65Z" transform="translate(-360.43 30)"/><path class="cls-1" d="M672.36,766c-14.47.89-24.27-14.71-18.3-25.85,4.35-8.48,15.46-11,21.61-5.31,7.57,6.57,4.26,18.58-4.89,18.93-5.08.35-8.85-4.22-6.81-7.48,8.34,9.87,14.65-2.56,7.95-6.73-3.58-2.43-9.07-.4-10.82,3.94-2.38,5.61,3.08,13.87,10.61,13C678.07,755.67,679.27,765.54,672.36,766Z" transform="translate(-360.43 30)"/><path class="cls-1" d="M576.6,767.34c-12.66-6.43-13.2-24.48-2.62-30.93,7.87-5,18.49-1.58,20.88,6.24,3.14,9.31-5.62,17.81-13.52,13.57-4.47-2.22-5.38-8-2-9.7,2.15,12.48,13.65,5.1,10.05-1.75-1.82-3.83-7.46-4.83-11.09-2C573.46,746.3,574,756,580.79,759,586.54,761.48,582.65,770.41,576.6,767.34Z" transform="translate(-360.43 30)"/><path class="cls-1" d="M494.75,738.46c3.56-15.34,22.86-20.7,32.61-11,7.47,7.16,6.6,19.49-1.19,24.14-9.19,5.85-20.66-1.33-18.19-11,1.21-5.4,7.14-7.91,9.91-4.77-12.88,5.62-1.88,16,4.54,10.36,3.64-3,3.23-9.32-.76-12.49-5.1-4.21-15.39-1.09-16.79,7C503.69,747.61,493.05,745.79,494.75,738.46Z" transform="translate(-360.43 30)"/><path class="cls-1" d="M424.2,761.36c-14.94-4.22-19.32-23.47-9.33-32.62,7.39-7,19.5-5.59,23.71,2.29,5.34,9.32-2.27,20.29-11.63,17.41-5.27-1.44-7.46-7.41-4.24-10,4.93,12.94,15.72,2.6,10.41-4-2.75-3.73-9-3.61-12.33.16-4.39,4.83-1.79,15.11,6.14,16.87C433.63,753,431.34,763.38,424.2,761.36Z" transform="translate(-360.43 30)"/><path class="cls-1" d="M1540.72,659.08c-5.38-9.71,2.18-21.64,11.86-21.18,7.29.22,12.67,7.09,10.79,13.2-2,7.4-11.45,9.07-14.7,2.86-1.93-3.4,0-7.51,2.93-7.18-4.09,9,6.6,9.29,7.27,3.28.5-3.28-2.71-6.4-6.3-6.18-4.66.2-8.57,6.7-5.47,11.61C1549.72,659.64,1543.29,663.72,1540.72,659.08Z" transform="translate(-360.43 30)"/><path class="cls-1" d="M1457.54,647.2c9.12,3.29,11,15.47,4.37,20.73-4.91,4.05-12.39,2.62-14.66-2.48-2.91-6,2.31-12.53,8-10.32,3.22,1.13,4.32,4.94,2.2,6.4-2.5-8.28-9.67-2.31-6.66,2,1.55,2.45,5.46,2.65,7.68.45,3-2.82,1.79-9.33-3.07-10.77C1451.3,652,1453.19,645.63,1457.54,647.2Z" transform="translate(-360.43 30)"/><path class="cls-1" d="M1385.73,648c3.63,9.18-4.41,18.83-12.89,17.31-6.4-1-10.35-7.7-8-12.87,2.65-6.29,11.13-6.68,13.29-.84,1.3,3.22-.87,6.63-3.41,6,4.64-7.49-4.75-9-6-3.73-.82,2.84,1.66,6,4.84,6.18,4.14.35,8.33-4.93,6.16-9.62C1377.86,646.44,1384,643.58,1385.73,648Z" transform="translate(-360.43 30)"/><path class="cls-1" d="M1293.19,660.52c-7.92-3-9.39-13.68-3.53-18.18,4.35-3.47,10.87-2.11,12.78,2.37,2.46,5.32-2.19,10.92-7.15,8.91-2.79-1-3.7-4.38-1.83-5.62,2.07,7.27,8.42,2.16,5.85-1.68-1.32-2.15-4.73-2.39-6.71-.49-2.61,2.41-1.69,8.12,2.54,9.45C1298.71,656.41,1297,662,1293.19,660.52Z" transform="translate(-360.43 30)"/><path class="cls-1" d="M1199.63,662.69c-4.45-8.33,2.14-18.36,10.35-17.84,6.2.28,10.67,6.18,9,11.35-1.83,6.27-9.84,7.56-12.53,2.24-1.58-2.91.11-6.39,2.59-6.06-3.59,7.61,5.49,8,6.14,2.88.47-2.78-2.22-5.48-5.27-5.33-4,.11-7.37,5.57-4.8,9.79C1207.27,663.28,1201.75,666.66,1199.63,662.69Z" transform="translate(-360.43 30)"/><path class="cls-1" d="M1120.84,672.26c-8.8-11.52-1.3-28.36,11.29-29.6,9.46-1.11,17.71,6.74,16.44,15-1.23,10-13.06,13.89-18.44,6.49-3.13-4-1.43-9.71,2.42-9.83-3.56,12.44,10.29,10.75,10,2.86,0-4.33-4.73-7.76-9.31-6.79-6,1.15-9.8,10.28-4.86,16C1132.57,671.28,1125,677.77,1120.84,672.26Z" transform="translate(-360.43 30)"/><path class="cls-1" d="M1061.66,674.23c-12.38,8.51-29.41-.14-30.05-13.22-.65-9.85,7.9-18,16.37-16.23,10.24,1.79,13.69,14.23,5.76,19.42-4.33,3-10.12,1-10-3,12.68,4.33,11.65-10.09,3.48-10.21-4.48-.26-8.27,4.48-7.51,9.27.88,6.25,10.13,10.67,16.34,5.86C1061.25,662,1067.57,670.17,1061.66,674.23Z" transform="translate(-360.43 30)"/><path class="cls-1" d="M973.75,648.67c5.85,11.52-3.45,25.06-14.68,24.12-8.47-.56-14.43-8.77-12-15.8,2.69-8.52,13.68-10.06,17.21-2.7,2.09,4-.32,8.73-3.71,8.22,5.12-10.32-7.28-11.08-8.32-4.12-.72,3.79,2.88,7.56,7.06,7.45,5.43,0,10.25-7.43,6.85-13.27C963.31,647.64,971,643.17,973.75,648.67Z" transform="translate(-360.43 30)"/><path class="cls-1" d="M880,644.06c10.35,4.72,11.38,19.15,3.13,24.66-6.13,4.27-14.74,1.89-16.92-4.29-2.82-7.35,3.91-14.44,10.37-11.31,3.65,1.63,4.57,6.19,2,7.69-2.14-9.92-11.1-3.63-8,1.73,1.58,3,6.13,3.62,8.95,1.26,3.72-3,3-10.74-2.57-12.9C872.29,649.08,875.1,641.81,880,644.06Z" transform="translate(-360.43 30)"/><path class="cls-1" d="M794.35,658.45c.23,9.17-9.88,15-16.78,11-5.26-2.94-6.57-10-2.85-13.79,4.33-4.64,11.85-2.25,11.86,3.54.1,3.22-2.88,5.5-4.9,4.13,6.45-5-1.27-9.33-4.07-5.18-1.62,2.2-.46,5.72,2.25,6.93,3.49,1.64,8.84-1.62,8.45-6.41C788,654.59,794.25,654.07,794.35,658.45Z" transform="translate(-360.43 30)"/><path class="cls-1" d="M700.88,676c-10.08-6.19-9.31-21.21-.1-25.85,6.88-3.62,15.46-.07,16.91,6.59,2,7.93-5.86,14.4-12.13,10.35-3.56-2.15-3.93-7-1-8.19.94,10.5,11,5.15,8.46-.77-1.25-3.3-5.87-4.52-9.07-2.44-4.22,2.64-4.44,10.7,1,13.64C709.52,671.82,705.69,679,700.88,676Z" transform="translate(-360.43 30)"/><path class="cls-1" d="M614.44,664c.24-15.24,17.4-24.26,28.6-17.09,8.54,5.25,10.23,17.1,3.81,23.09-7.5,7.41-19.83,3-19.45-6.66,0-5.36,5.14-8.94,8.4-6.53-11,7.94,1.49,15.57,6.41,8.87,2.84-3.55,1.15-9.47-3.26-11.66-5.69-2.95-14.79,2.11-14.46,10.08C624.77,670.86,614.32,671.31,614.44,664Z" transform="translate(-360.43 30)"/><path class="cls-1" d="M563.69,639.08c6.28,10.58-1.71,24-12.44,23.85-8.09,0-14.27-7.43-12.39-14.27,2-8.27,12.38-10.42,16.2-3.65,2.23,3.7.24,8.33-3,8,4.23-10.13-7.61-10.07-8.16-3.39-.45,3.64,3.22,7,7.18,6.64,5.16-.38,9.27-7.71,5.67-13C553.7,638.75,560.68,634,563.69,639.08Z" transform="translate(-360.43 30)"/><path class="cls-1" d="M450.43,687.36c-13.31-4.82-16-22.6-6.36-30.27,7.18-5.9,18.1-3.81,21.41,3.63,4.25,8.82-3.39,18.3-11.71,15.07-4.69-1.66-6.3-7.22-3.2-9.35,3.64,12.08,14.12,3.39,9.73-3-2.27-3.57-8-3.87-11.22-.66-4.31,4.11-2.62,13.62,4.47,15.74C459.54,680.35,456.79,689.66,450.43,687.36Z" transform="translate(-360.43 30)"/><path class="cls-1" d="M381.93,679.91c-15.33-4.12-20.06-23.74-10-33.23,7.46-7.28,19.86-6,24.27,2,5.58,9.46-2.05,20.77-11.67,17.95-5.4-1.41-7.71-7.47-4.46-10.15,5.22,13.17,16.1,2.45,10.6-4.21-2.87-3.77-9.28-3.58-12.61.32-4.42,5-1.63,15.47,6.5,17.16C391.45,671.21,389.25,681.87,381.93,679.91Z" transform="translate(-360.43 30)"/><path class="cls-1" d="M1498.32,577.92c-6.71-7.52-2.39-19.59,6.26-21.12,6.5-1.27,12.63,3.74,12.19,9.53-.33,7-8.32,10.31-12.44,5.47-2.38-2.63-1.5-6.65,1.16-6.94-1.81,8.8,7.7,6.9,7.09,1.45-.21-3-3.68-5.13-6.81-4.22-4.08,1.12-6.24,7.65-2.51,11.38C1506.4,576.62,1501.53,581.51,1498.32,577.92Z" transform="translate(-360.43 30)"/><path class="cls-1" d="M1435.73,558.56c8,10,1.66,25-9.43,26.34-8.33,1.15-15.76-5.63-14.79-12.94.91-8.81,11.28-12.5,16.17-6.06,2.83,3.49,1.43,8.54-2,8.72,2.92-11-9.28-9.3-8.9-2.34.06,3.83,4.31,6.76,8.34,5.83,5.27-1.13,8.47-9.26,4-14.25C1425.39,559.64,1431.92,553.77,1435.73,558.56Z" transform="translate(-360.43 30)"/><path class="cls-1" d="M1355,579.78c-8.19,10-24.36,7-28-3.67-2.92-8,2.19-16.78,9.62-17.39,8.9-1,14.76,8.47,9.45,14.68-2.85,3.55-8.13,3.24-9-.07,11.54.52,7.2-11.16.41-9.29-3.77.87-5.76,5.71-4,9.49,2.24,5,11,6.38,14.93.89C1351.69,569.8,1358.89,575,1355,579.78Z" transform="translate(-360.43 30)"/><path class="cls-1" d="M1262.61,565.17c-.54,8.53-10.39,13.12-16.46,8.81-4.64-3.16-5.28-9.84-1.52-13,4.39-4,11.17-1.13,10.71,4.24-.17,3-3.12,4.87-4.88,3.43,6.39-4.15-.42-8.75-3.35-5.13-1.68,1.91-.9,5.27,1.52,6.61,3.1,1.8,8.33-.79,8.35-5.26C1257,561.08,1262.86,561.1,1262.61,565.17Z" transform="translate(-360.43 30)"/><path class="cls-1" d="M1169.18,591.31c-12-1.6-17.47-15.95-10.79-24.1,4.92-6.23,14.41-6.46,18.52-.85,5.14,6.59.49,15.88-7,14.69-4.22-.53-6.56-4.88-4.37-7.22,5.23,9.43,12.4.27,7.59-4.22-2.54-2.56-7.36-1.79-9.49,1.49-2.85,4.2.29,11.83,6.59,12.31C1175.52,583.82,1174.9,592.08,1169.18,591.31Z" transform="translate(-360.43 30)"/><path class="cls-1" d="M1081,569.23c8,5.69,6.62,18.14-1.3,21.52-5.91,2.65-12.86-.77-13.72-6.38-1.23-6.71,5.64-11.67,10.64-8,2.85,2,2.91,6,.44,6.87-.23-8.79-8.87-4.87-7.09.19.87,2.82,4.65,4.07,7.43,2.51,3.65-2,4.26-8.67-.12-11.4C1073.62,572.27,1077.18,566.52,1081,569.23Z" transform="translate(-360.43 30)"/><path class="cls-1" d="M1022.9,575.31c0,15.78-17.7,25.32-29.37,18-8.9-5.32-10.81-17.56-4.24-23.83,7.67-7.77,20.48-3.32,20.21,6.64,0,5.54-5.21,9.31-8.6,6.86,11.31-8.36-1.75-16.09-6.75-9.1-2.9,3.72-1.07,9.82,3.52,12,5.93,3,15.27-2.37,14.83-10.61C1012.13,568.38,1022.93,567.77,1022.9,575.31Z" transform="translate(-360.43 30)"/><path class="cls-1" d="M925.28,560.58c12.42,5.92,13.37,23.38,3.29,29.88-7.51,5-17.87,2-20.37-5.54-3.27-8.93,5-17.37,12.76-13.46,4.38,2,5.4,7.58,2.21,9.35-2.38-12-13.34-4.62-9.69,1.93,1.85,3.66,7.34,4.5,10.79,1.7,4.56-3.57,3.82-12.93-2.84-15.65C915.81,566.5,919.35,557.76,925.28,560.58Z" transform="translate(-360.43 30)"/><path class="cls-1" d="M817.89,590.65c-7.06-5.42-5.31-16.59,1.94-19.34,5.43-2.17,11.57,1.16,12.14,6.25.86,6.09-5.51,10.31-9.88,6.79-2.5-1.88-2.4-5.52-.14-6.2-.12,7.93,7.81,4.71,6.38.08-.67-2.56-4-3.83-6.59-2.53-3.36,1.64-4.16,7.66-.31,10.28C824.68,588.19,821.26,593.23,817.89,590.65Z" transform="translate(-360.43 30)"/><path class="cls-1" d="M748.41,581.11c-8.36-6.1-6.64-19.15,1.73-22.56,6.25-2.68,13.49,1,14.3,6.93,1.17,7.07-6.13,12.16-11.32,8.19-3-2.12-2.94-6.36-.33-7.22.08,9.23,9.22,5.26,7.44-.08-.86-3-4.81-4.36-7.75-2.76-3.87,2-4.63,9-.08,12C756.25,578.06,752.41,584,748.41,581.11Z" transform="translate(-360.43 30)"/><path class="cls-1" d="M649.57,582.5c-1-10.4,10.08-17.79,18.23-13.73,6.2,3,8.22,10.9,4.28,15.45-4.57,5.6-13.29,3.46-13.74-3.11-.36-3.66,2.86-6.47,5.25-5.07-6.94,6.22,2.16,10.5,5,5.58,1.67-2.63.09-6.54-3.08-7.7-4.09-1.6-9.92,2.51-9.11,7.91C657.1,586.4,650,587.47,649.57,582.5Z" transform="translate(-360.43 30)"/><path class="cls-1" d="M601.09,561.11c9.55,10.88,3.21,28.16-9.24,30.25-9.34,1.75-18.09-5.51-17.38-13.82.55-10,12.06-14.71,17.92-7.71,3.39,3.8,2.08,9.57-1.74,9.95,2.7-12.62-11-10-10.17-2.16.27,4.32,5.23,7.4,9.73,6.13,5.88-1.55,9.06-10.9,3.75-16.3C589.47,562.89,596.53,555.92,601.09,561.11Z" transform="translate(-360.43 30)"/><path class="cls-1" d="M489.79,570.7c.67-8.48,10.55-12.89,16.53-8.5,4.56,3.22,5.08,9.88,1.3,13-4.44,3.86-11.15.94-10.6-4.4.22-3,3.19-4.79,4.91-3.34-6.42,4,.28,8.72,3.26,5.17,1.71-1.88,1-5.24-1.41-6.61-3.06-1.84-8.3.65-8.4,5.1C495.3,574.87,489.46,574.75,489.79,570.7Z" transform="translate(-360.43 30)"/><path class="cls-1" d="M422.52,594.83c-12.58,3.23-23.84-8.85-20.46-19.66,2.39-8.19,11.75-12.24,18.11-8.31,7.77,4.5,6.88,15.62-1.1,17.47-4.41,1.17-8.5-2.22-7.26-5.43,9,7.28,12.46-4.73,5.86-7.26-3.56-1.54-8.05,1.18-8.85,5.3-1.15,5.33,5.05,11.67,11.52,9.61C425.81,584.81,428.52,593.29,422.52,594.83Z" transform="translate(-360.43 30)"/><path class="cls-1" d="M1559.94,479.52c7.44,11.41-.78,26.67-12.66,27-8.94.37-16.12-7.56-14.36-15.21,1.86-9.24,13.22-12.1,17.75-4.79,2.64,4,.65,9.2-3,9,4.2-11.4-8.9-10.79-9.19-3.37-.33,4.05,3.88,7.6,8.24,7,5.69-.66,9.91-9,5.68-14.69C1548.87,479.62,1556.38,474.07,1559.94,479.52Z" transform="translate(-360.43 30)"/><path class="cls-1" d="M1442.07,500.72c3.16-15.24,22.1-21,32-11.66,7.55,6.89,7,19.1-.61,23.88-8.93,6-20.44-.83-18.23-10.4,1.07-5.37,6.87-8,9.68-5-12.59,5.86-1.48,15.91,4.73,10.14,3.53-3,3-9.29-1-12.33-5.14-4-15.23-.71-16.43,7.34C1451.12,509.54,1440.56,508,1442.07,500.72Z" transform="translate(-360.43 30)"/><path class="cls-1" d="M1360.75,502.2c-.44-14.81,15.82-24.32,27-17.86,8.52,4.72,10.69,16.15,4.72,22.25-7,7.53-19.12,3.75-19.18-5.6-.2-5.21,4.6-8.91,7.87-6.72-10.37,8.2,2.14,15.05,6.61,8.34,2.6-3.58.7-9.26-3.68-11.18-5.65-2.62-14.26,2.7-13.59,10.42C1371.08,508.37,1361,509.27,1360.75,502.2Z" transform="translate(-360.43 30)"/><path class="cls-1" d="M1304.3,477.45c3,8.54-4.76,17.06-12.46,15.35-5.82-1.18-9.18-7.44-6.82-12.08,2.66-5.66,10.44-5.7,12.19-.26,1.07,3-1,6-3.35,5.35,4.53-6.68-4-8.37-5.38-3.64-.86,2.56,1.29,5.52,4.2,5.83,3.77.49,7.8-4.18,6-8.56C1297.15,475.75,1302.87,473.37,1304.3,477.45Z" transform="translate(-360.43 30)"/><path class="cls-1" d="M1224.05,470.91c14.69,5.56,17.42,25.35,6.56,33.7-8.07,6.43-20.15,3.93-23.7-4.39-4.57-9.86,4.06-20.24,13.25-16.52,5.18,1.91,6.86,8.11,3.39,10.43-3.84-13.48-15.61-4-10.84,3.11,2.45,4,8.78,4.43,12.44.91,4.85-4.48,3.13-15.06-4.71-17.53C1213.82,478.53,1217,468.25,1224.05,470.91Z" transform="translate(-360.43 30)"/><path class="cls-1" d="M1129.15,478.12c6.7,5.35,4.8,16.08-2.24,18.59-5.26,2-11.12-1.33-11.57-6.24-.72-5.89,5.5-9.84,9.65-6.36,2.37,1.86,2.2,5.36,0,6,.26-7.64-7.44-4.69-6.16-.2.61,2.48,3.82,3.77,6.31,2.56,3.27-1.52,4.15-7.3.49-9.9C1122.56,480.36,1126,475.56,1129.15,478.12Z" transform="translate(-360.43 30)"/><path class="cls-1" d="M1039.22,490.75c-.61-15.26,16-25.23,27.65-18.69,8.83,4.77,11.18,16.53,5.1,22.87-7.09,7.84-19.66,4.07-19.83-5.56-.26-5.36,4.65-9.23,8-7-10.6,8.56,2.36,15.49,6.91,8.52,2.64-3.72.62-9.54-3.92-11.48-5.85-2.63-14.67,2.93-13.89,10.89C1049.93,497,1039.51,498,1039.22,490.75Z" transform="translate(-360.43 30)"/><path class="cls-1" d="M962,502.77c-9.61,2.73-18.51-6.33-16.12-14.71,1.67-6.35,8.79-9.65,13.76-6.75,6.07,3.3,5.6,11.87-.5,13.46-3.37,1-6.58-1.54-5.69-4,7.07,5.42,9.49-3.88,4.36-5.7-2.77-1.11-6.16,1.07-6.7,4.25-.78,4.13,4.11,8.88,9.05,7.17C964.37,495,966.63,501.47,962,502.77Z" transform="translate(-360.43 30)"/><path class="cls-1" d="M887.09,485.93c-2,8.94-13.18,12.17-18.9,6.59-4.39-4.12-4-11.3.55-14,5.31-3.45,12,.66,10.65,6.27-.68,3.15-4.12,4.64-5.74,2.83,7.46-3.34,1-9.34-2.7-6-2.1,1.75-1.83,5.44.51,7.26,3,2.43,9,.55,9.73-4.18C881.84,480.66,888,481.65,887.09,485.93Z" transform="translate(-360.43 30)"/><path class="cls-1" d="M809.27,505c-12.5,6.13-27-4.09-25.78-16.18.73-9.13,9.67-15.42,17.21-12.68,9.14,3,10.63,14.9,2.66,18.59-4.38,2.19-9.42-.48-8.81-4.13,11.05,5.69,12.05-7.68,4.56-8.9-4.07-.83-8.19,3-8.13,7.5,0,5.85,7.85,11.16,14.2,7.58C810.54,493.72,815.24,502,809.27,505Z" transform="translate(-360.43 30)"/><path class="cls-1" d="M706,485.79c13.91,4.53,17.33,22.81,7.6,31.06-7.22,6.34-18.57,4.55-22.25-3-4.68-9,2.89-19,11.6-16,4.9,1.55,6.74,7.25,3.62,9.55-4.17-12.36-14.7-3-10,3.38,2.46,3.6,8.36,3.73,11.61.3,4.32-4.39,2.25-14.16-5.16-16.11C696.85,493.34,699.38,483.63,706,485.79Z" transform="translate(-360.43 30)"/><path class="cls-1" d="M617.44,519.09c-12.84-3.7-16.53-20.29-7.89-28.12,6.4-6,16.82-4.74,20.41,2.07,4.55,8-2.05,17.46-10.1,14.94-4.52-1.27-6.38-6.41-3.6-8.61,4.19,11.16,13.52,2.3,9-3.39-2.35-3.22-7.75-3.15-10.62.08-3.8,4.14-1.61,13,5.21,14.55C625.59,511.92,623.58,520.86,617.44,519.09Z" transform="translate(-360.43 30)"/><path class="cls-1" d="M538,480c8.91,2.35,11.73,13.73,5.9,19.27-4.32,4.26-11.53,3.54-14.11-1.1-3.28-5.47,1.12-12.07,6.72-10.46,3.14.8,4.51,4.31,2.62,5.88-3.07-7.63-9.36-1.37-6.14,2.48,1.68,2.18,5.4,2.05,7.32-.23,2.56-2.91.9-9-3.83-10C532.47,485.09,533.71,478.89,538,480Z" transform="translate(-360.43 30)"/><path class="cls-1" d="M455.27,500.28c-8.9-5-8.77-17.93-1-22.26,5.8-3.36,13.31-.61,14.81,5.07,2,6.76-4.54,12.61-10.08,9.35-3.15-1.72-3.64-5.86-1.19-7,1.18,9,9.64,4.05,7.26-1-1.2-2.8-5.22-3.68-7.91-1.77-3.53,2.41-3.44,9.37,1.36,11.7C462.56,496.36,459.53,502.65,455.27,500.28Z" transform="translate(-360.43 30)"/><path class="cls-1" d="M395.47,501.38c-12.8,5.5-26.74-5.44-25-17.46,1.18-9.08,10.42-14.93,17.82-11.81,9,3.48,9.89,15.42,1.73,18.71-4.48,2-9.38-.95-8.59-4.56,10.75,6.23,12.42-7.08,5-8.67-4-1-8.33,2.59-8.5,7.08-.33,5.85,7.28,11.55,13.81,8.29C397.3,490.21,401.58,498.75,395.47,501.38Z" transform="translate(-360.43 30)"/><path class="cls-1" d="M1526.66,413.7c-6.42,13.89-25.84,15.19-33.2,4.06-5.71-8.28-2.45-19.85,5.88-22.74,9.9-3.76,19.4,5.34,15.15,14-2.21,4.9-8.35,6.11-10.36,2.58,13.35-2.81,4.95-14.9-2.28-10.75-4.06,2.11-4.91,8.23-1.75,12,4,5,14.43,4.07,17.37-3.38C1520,403.23,1529.72,407.06,1526.66,413.7Z" transform="translate(-360.43 30)"/><path class="cls-1" d="M1425.82,416c-8,6.43-20,1.46-21.09-7.39-1-6.65,4.41-12.62,10.26-11.88,7,.68,10,8.94,4.92,12.88-2.78,2.28-6.81,1.19-7-1.52,8.83,2.27,7.37-7.46,1.82-7.12-3.06.07-5.38,3.48-4.61,6.69.92,4.2,7.43,6.72,11.4,3.12C1424.9,407.76,1429.61,412.94,1425.82,416Z" transform="translate(-360.43 30)"/><path class="cls-1" d="M1343.68,416.06c-9.7,4.19-20.29-4.08-19-13.21.88-6.89,7.89-11.34,13.5-9,6.83,2.62,7.53,11.68,1.34,14.19-3.4,1.5-7.12-.71-6.52-3.45,8.16,4.71,9.41-5.38,3.78-6.58-3.06-.78-6.32,2-6.44,5.38-.24,4.44,5.54,8.75,10.49,6.27C1345.05,407.59,1348.32,414.06,1343.68,416.06Z" transform="translate(-360.43 30)"/><path class="cls-1" d="M1266.8,415.4c-2,14.74-19.6,21.52-29.64,13.31-7.67-6-8-17.72-1.07-22.79,8.1-6.33,19.54-.62,18.08,8.65-.64,5.18-6,8.08-8.87,5.38,11.59-6.45.31-15.25-5.21-9.33-3.15,3.13-2.18,9.05,1.84,11.67,5.18,3.5,14.56-.37,15.14-8.12C1257.57,407.62,1267.73,408.36,1266.8,415.4Z" transform="translate(-360.43 30)"/><path class="cls-1" d="M1171.54,424.09c-11.9.75-20-12.08-15.08-21.26,3.56-7,12.7-9,17.77-4.39,6.24,5.4,3.52,15.28-4,15.58-4.18.3-7.29-3.46-5.61-6.15,6.87,8.12,12.05-2.12,6.53-5.54-3-2-7.46-.32-8.9,3.26-2,4.62,2.55,11.4,8.75,10.65C1176.23,415.61,1177.23,423.73,1171.54,424.09Z" transform="translate(-360.43 30)"/><path class="cls-1" d="M1088.52,414.1c-3.61,9.17-16,10.72-21.19,3.84-4-5.12-2.3-12.67,3-14.83,6.22-2.79,12.66,2.71,10.25,8.44-1.24,3.23-5.14,4.24-6.57,2.05,8.49-2.3,2.64-9.76-1.86-6.83-2.52,1.51-2.85,5.47-.67,7.8,2.77,3.07,9.42,2.08,11-2.81C1083.82,407.62,1090.24,409.72,1088.52,414.1Z" transform="translate(-360.43 30)"/><path class="cls-1" d="M1001.87,393.15c11.2,2.44,15.29,16.43,8.34,23.62-5.14,5.51-14.12,5-17.58-.63-4.35-6.63.76-15.05,7.79-13.35,4,.83,5.83,5.13,3.57,7.17-4.21-9.32-11.7-1.21-7.49,3.4,2.2,2.63,6.81,2.26,9.08-.67,3-3.75.64-11.21-5.28-12.15C995.3,399.75,996.52,392,1001.87,393.15Z" transform="translate(-360.43 30)"/><path class="cls-1" d="M909.74,400.25c10,1.94,14,14.33,7.93,20.89-4.46,5-12.49,4.75-15.69-.19-4-5.82.37-13.44,6.67-12.07,3.54.65,5.3,4.45,3.34,6.31-4-8.21-10.46-.83-6.62,3.2,2,2.29,6.13,1.87,8.09-.79,2.61-3.41.34-10-5-10.73C904,406.27,904.94,399.32,909.74,400.25Z" transform="translate(-360.43 30)"/><path class="cls-1" d="M825.93,415.09c-4.5-12.35,6.56-24.89,17.78-22.56,8.49,1.6,13.5,10.62,10.17,17.42-3.76,8.28-15.06,8.48-17.72.62-1.61-4.33,1.4-8.78,4.76-7.85-6.44,9.8,6,12.08,7.9,5.18,1.19-3.74-2-8-6.22-8.39-5.49-.62-11.26,6.25-8.54,12.57C836.35,417.41,828.08,421,825.93,415.09Z" transform="translate(-360.43 30)"/><path class="cls-1" d="M765.08,422.61c-13.41,3.48-25.47-9.38-21.9-20.93,2.53-8.75,12.5-13.11,19.31-8.93,8.31,4.78,7.39,16.66-1.12,18.66-4.71,1.26-9.08-2.34-7.76-5.78,9.63,7.75,13.28-5.08,6.22-7.77-3.8-1.63-8.58,1.29-9.43,5.69-1.2,5.7,5.43,12.44,12.34,10.22C768.56,411.9,771.49,420.94,765.08,422.61Z" transform="translate(-360.43 30)"/><path class="cls-1" d="M677.85,414.88c-4.67,10.83-19.59,12.2-25.48,3.78-4.55-6.27-2.27-15.24,4.09-17.63,7.54-3.08,15,3.74,11.94,10.5-1.61,3.82-6.32,4.87-7.94,2.19,10.24-2.42,3.53-11.57-2-8.24-3.08,1.71-3.62,6.44-1.11,9.3,3.2,3.79,11.19,2.86,13.31-2.94C672.48,407,680.08,409.71,677.85,414.88Z" transform="translate(-360.43 30)"/><path class="cls-1" d="M588.71,412.68c-9.8-1.72-13.84-13.7-8.07-20.18,4.25-5,12.06-4.83,15.26-.08,4,5.59-.13,13.08-6.29,11.85-3.44-.58-5.23-4.24-3.34-6.08,4,7.92,10.18.63,6.38-3.22-2-2.2-6-1.72-7.85.9-2.49,3.36-.17,9.74,5,10.35C594.17,406.73,593.39,413.5,588.71,412.68Z" transform="translate(-360.43 30)"/><path class="cls-1" d="M509.5,414.88c-11.17-.1-17.86-12.63-12.66-20.87,3.8-6.28,12.47-7.58,16.89-2.91,5.47,5.46,2.27,14.51-4.78,14.29-3.92,0-6.57-3.73-4.83-6.12,5.88,8,11.4-1.18,6.47-4.75-2.62-2.06-6.94-.79-8.52,2.45-2.13,4.19,1.62,10.82,7.45,10.54C514.45,407.27,514.84,414.92,509.5,414.88Z" transform="translate(-360.43 30)"/><path class="cls-1" d="M422.38,424.3c-13.63-5.69-15.58-24.38-5.11-31.89,7.79-5.8,19.06-3.07,22.15,4.86,4,9.41-4.45,18.91-13,15.12-4.81-2-6.2-7.84-2.86-9.91,3.19,12.79,14.55,4.25,10.29-2.58-2.18-3.84-8.12-4.44-11.67-1.25-4.7,4.06-3.41,14.07,3.88,16.63C432.24,417.45,428.9,427,422.38,424.3Z" transform="translate(-360.43 30)"/><path class="cls-1" d="M1562.88,319.12c-.59,12.67-15.1,19.72-24.23,13.47-7-4.58-8.07-14.48-2.57-19.29,6.42-6,16.56-2,16,6-.17,4.45-4.51,7.3-7.15,5.22,9.38-6.33-.85-13-5.11-7.55-2.45,2.89-1.2,7.85,2.42,9.78,4.65,2.6,12.35-1.37,12.28-8C1554.46,313.17,1563.16,313.06,1562.88,319.12Z" transform="translate(-360.43 30)"/><path class="cls-1" d="M1451.77,340.36c-9.24-1.7-13-13-7.47-19.11,4.06-4.65,11.43-4.47,14.41,0,3.74,5.31-.22,12.34-6,11.14-3.25-.57-4.91-4-3.12-5.77,3.7,7.51,9.61.67,6-3-1.87-2.09-5.64-1.67-7.42.79-2.37,3.16-.23,9.2,4.65,9.81C1457,334.78,1456.18,341.17,1451.77,340.36Z" transform="translate(-360.43 30)"/><path class="cls-1" d="M1395.63,327.28c-8.27,8.65-23,4.69-25.58-5.41-2.12-7.57,3.22-15.3,10.11-15.32,8.27-.27,13,8.86,7.65,14.2-2.87,3.07-7.72,2.41-8.32-.71,10.59,1.3,7.44-9.77,1-8.54-3.53.54-5.71,4.85-4.34,8.46,1.71,4.73,9.64,6.67,13.7,1.9C1393.32,317.84,1399.57,323.15,1395.63,327.28Z" transform="translate(-360.43 30)"/><path class="cls-1" d="M1277.8,338.64c-5.7-9.74,1.71-22,11.54-21.78,7.42.05,13,6.9,11.26,13.15-1.9,7.57-11.41,9.47-14.86,3.24-2-3.4-.17-7.63,2.81-7.35-3.93,9.26,6.92,9.28,7.46,3.16.44-3.34-2.9-6.44-6.53-6.13-4.73.31-8.55,7-5.29,11.92C1287,339,1280.52,343.29,1277.8,338.64Z" transform="translate(-360.43 30)"/><path class="cls-1" d="M1202.37,347.56c-11.33-1.05-17-14.33-11.08-22.25,4.38-6,13.29-6.63,17.38-1.51,5.09,6,1.07,14.91-6.06,14.08-4-.33-6.35-4.33-4.38-6.62,5.28,8.66,11.67-.22,7-4.26-2.48-2.31-7-1.39-8.86,1.76-2.52,4.07.72,11.12,6.67,11.33C1208,340.26,1207.77,348.06,1202.37,347.56Z" transform="translate(-360.43 30)"/><path class="cls-1" d="M1105,334.19c.74-11,13.42-16.81,21.21-11.23,6,4.09,6.73,12.68,1.88,16.75-5.67,5.05-14.37,1.39-13.74-5.51.22-3.86,4-6.24,6.28-4.39-8.23,5.3.5,11.26,4.29,6.62,2.17-2.45,1.18-6.77-1.92-8.51-4-2.33-10.71,1-10.77,6.71C1112.15,339.48,1104.62,339.42,1105,334.19Z" transform="translate(-360.43 30)"/><path class="cls-1" d="M1026.54,330.06c-.56-10.35,10.65-17.28,18.59-12.95,6,3.16,7.75,11.11,3.68,15.48-4.74,5.39-13.31,3-13.51-3.59-.23-3.64,3.07-6.31,5.39-4.83-7.11,5.91,1.75,10.49,4.77,5.72,1.75-2.55.33-6.49-2.77-7.76-4-1.73-9.93,2.13-9.33,7.52C1033.87,334.2,1026.81,335,1026.54,330.06Z" transform="translate(-360.43 30)"/><path class="cls-1" d="M949.68,336.74c-4.91-14.73,8.54-29.2,21.73-26.09,10,2.16,15.6,13,11.45,20.9-4.7,9.66-18.05,9.55-20.94.18-1.77-5.17,1.92-10.33,5.86-9.12-7.92,11.36,6.7,14.46,9.17,6.37,1.53-4.38-2.1-9.5-7.08-10.11-6.46-.92-13.5,7-10.49,14.57C961.92,339.81,952,343.78,949.68,336.74Z" transform="translate(-360.43 30)"/><path class="cls-1" d="M862.46,352c-11.18-9.13-7.78-27.18,4.13-31.28,8.91-3.25,18.71,2.45,19.38,10.74,1.1,9.93-9.46,16.47-16.38,10.54-4-3.18-3.61-9.08.09-10.09-.59,12.87,12.44,8.05,10.36.46-1-4.2-6.36-6.42-10.58-4.43-5.53,2.49-7.13,12.22-1,16.66C873.61,348.34,867.8,356.36,862.46,352Z" transform="translate(-360.43 30)"/><path class="cls-1" d="M781.54,330.91c-1.89-13.56,12.11-23.92,23-19.1,8.3,3.48,11.43,13.77,6.55,20-5.63,7.61-17.18,5.36-18.17-3.23-.71-4.76,3.33-8.64,6.55-7-8.7,8.57,3.47,13.61,6.91,7,2-3.54-.28-8.56-4.49-9.9-5.46-1.83-12.84,3.9-11.45,10.93C791.64,335.55,782.44,337.38,781.54,330.91Z" transform="translate(-360.43 30)"/><path class="cls-1" d="M712.64,314.35c6.11,7.06,2,18.17-6.08,19.47-6,1.08-11.64-3.63-11.15-9,.39-6.44,7.84-9.43,11.59-4.89,2.17,2.46,1.3,6.18-1.17,6.41,1.8-8.13-7-6.5-6.55-1.44.16,2.78,3.34,4.8,6.25,4,3.8-1,5.89-7,2.49-10.49C705.14,315.45,709.72,311,712.64,314.35Z" transform="translate(-360.43 30)"/><path class="cls-1" d="M638.22,311.47c12.06,8.9,9.46,27.77-2.66,32.63-9.07,3.83-19.52-1.58-20.64-10.13-1.65-10.23,9-17.55,16.43-11.76,4.26,3.09,4.21,9.22.43,10.45,0-13.36-13.31-7.69-10.76.06,1.22,4.3,6.92,6.33,11.19,4,5.61-2.87,6.76-13,.19-17.31C626.86,315.84,632.46,307.23,638.22,311.47Z" transform="translate(-360.43 30)"/><path class="cls-1" d="M541.5,353.44c-14.87-1.54-22.2-19.08-14.24-29.41,5.86-7.88,17.58-8.52,22.88-1.73,6.6,8,1.19,19.62-8.17,18.43-5.23-.5-8.29-5.8-5.66-8.77,6.81,11.46,15.34-.13,9.22-5.5-3.23-3.08-9.16-1.94-11.67,2.18-3.37,5.31.78,14.63,8.6,15C549.06,343.94,548.6,354.18,541.5,353.44Z" transform="translate(-360.43 30)"/><path class="cls-1" d="M458,311.63c11.7,2.53,16,17.14,8.74,24.66-5.36,5.76-14.75,5.24-18.36-.63-4.56-6.92.78-15.73,8.13-14,4.12.85,6.09,5.34,3.73,7.47-4.41-9.72-12.22-1.25-7.83,3.57,2.3,2.74,7.12,2.35,9.49-.71,3.15-3.93.66-11.71-5.53-12.69C451.13,318.53,452.39,310.41,458,311.63Z" transform="translate(-360.43 30)"/><path class="cls-1" d="M366.23,337.87c-8.53-5.83-7.21-18.89,1-22.55,6.15-2.86,13.48.6,14.47,6.47,1.39,7-5.73,12.31-11,8.51-3-2-3.14-6.25-.56-7.19.37,9.2,9.36,5,7.41-.31-.95-2.93-4.93-4.19-7.81-2.51-3.79,2.12-4.33,9.15.3,11.93C374,334.58,370.31,340.65,366.23,337.87Z" transform="translate(-360.43 30)"/><path class="cls-1" d="M1512.3,256.91c-12.54,3.81-24.43-7.88-21.5-18.93,2-8.37,11.31-12.87,17.9-9.18,8,4.19,7.63,15.45-.34,17.67-4.4,1.38-8.67-1.86-7.56-5.16,9.41,6.95,12.36-5.31,5.59-7.58-3.66-1.39-8.06,1.54-8.7,5.73-.92,5.44,5.61,11.56,12,9.19C1515.18,246.66,1518.29,255.09,1512.3,256.91Z" transform="translate(-360.43 30)"/><path class="cls-1" d="M1406.73,246.38c-1.68-12.45,11.18-21.9,21.19-17.44,7.59,3.22,10.43,12.66,5.94,18.33-5.19,7-15.78,4.85-16.66-3-.63-4.37,3.09-7.92,6-6.36-8,7.83,3.13,12.49,6.31,6.44,1.88-3.25-.23-7.86-4.09-9.1-5-1.7-11.78,3.54-10.53,10C1416,250.67,1407.53,252.32,1406.73,246.38Z" transform="translate(-360.43 30)"/><path class="cls-1" d="M1321.63,246.48c-1.79-11.1,9.52-19.85,18.57-16.08,6.88,2.71,9.63,11.1,5.74,16.27-4.49,6.35-14,4.7-15-2.33-.66-3.9,2.59-7.16,5.26-5.83-7,7.19,3.1,11.12,5.8,5.63,1.61-2.95-.38-7-3.87-8.06-4.51-1.41-10.46,3.44-9.2,9.18C1330,250.11,1322.48,251.79,1321.63,246.48Z" transform="translate(-360.43 30)"/><path class="cls-1" d="M1273.67,242.56c-5.09,12.65-22.31,14.69-29.37,5.11-5.44-7.11-3.06-17.55,4.22-20.5,8.63-3.79,17.5,3.88,14.11,11.79-1.75,4.46-7.16,5.82-9.11,2.77,11.76-3.1,3.74-13.49-2.51-9.47-3.51,2.06-4,7.55-1,10.79,3.81,4.28,13,3,15.3-3.79C1267.22,233.55,1276.09,236.51,1273.67,242.56Z" transform="translate(-360.43 30)"/><path class="cls-1" d="M1188.06,257.42c-14.54,5.54-29.57-7.32-27-20.65,1.74-10.07,12.33-16.16,20.44-12.33,9.86,4.3,10.3,17.66,1,20.95-5.1,2-10.42-1.5-9.37-5.49,11.7,7.45,14.19-7.31,6-9.44-4.45-1.34-9.42,2.5-9.83,7.51-.64,6.5,7.59,13.21,15,9.89C1190.62,245.05,1195,254.77,1188.06,257.42Z" transform="translate(-360.43 30)"/><path class="cls-1" d="M1076,245.22c-2.28-13.12,11-23.66,21.75-19.34,8.18,3.11,11.57,13,7,19.19-5.22,7.58-16.53,5.78-17.78-2.53-.84-4.61,3-8.52,6.14-7-8.17,8.63,3.83,13.12,7,6.57,1.85-3.51-.57-8.32-4.71-9.47-5.36-1.6-12.34,4.22-10.76,11C1085.94,249.39,1077.06,251.48,1076,245.22Z" transform="translate(-360.43 30)"/><path class="cls-1" d="M991.68,253.1c-8.08-3.93-8.6-15.33-2-19.52,4.93-3.24,11.67-1.19,13.26,3.73,2.09,5.84-3.36,11.31-8.39,8.71-2.85-1.35-3.49-5-1.4-6.11,1.49,7.87,8.68,3.08,6.34-1.21-1.19-2.4-4.77-3-7-1.16-3,2.3-2.56,8.41,1.77,10.22C997.89,249.29,995.53,255,991.68,253.1Z" transform="translate(-360.43 30)"/><path class="cls-1" d="M917.39,254.19c-8.82,3.69-18.32-3.91-17-12.15.88-6.23,7.26-10.18,12.32-8,6.15,2.45,6.68,10.65,1.06,12.85-3.09,1.33-6.43-.71-5.87-3.18,7.34,4.35,8.58-4.78,3.5-5.92-2.76-.74-5.74,1.72-5.89,4.8-.27,4,4.93,8,9.43,5.79C918.73,246.53,921.61,252.43,917.39,254.19Z" transform="translate(-360.43 30)"/><path class="cls-1" d="M837.49,228c7,5.6,5,16.78-2.39,19.38-5.5,2.06-11.59-1.42-12.05-6.54-.73-6.14,5.77-10.24,10.08-6.61,2.46,1.95,2.28,5.6,0,6.24.3-8-7.74-4.91-6.42-.23.63,2.6,4,4,6.57,2.69,3.42-1.57,4.35-7.6.55-10.31C830.61,230.34,834.16,225.35,837.49,228Z" transform="translate(-360.43 30)"/><path class="cls-1" d="M750.62,227.88c11,2.91,14.47,17,7.26,23.8-5.33,5.25-14.23,4.36-17.42-1.37-4-6.77,1.41-14.91,8.31-12.91,3.88,1,5.56,5.33,3.24,7.26-3.79-9.43-11.56-1.71-7.59,3.06,2.07,2.69,6.66,2.53,9-.28,3.16-3.6,1.12-11.1-4.72-12.29C743.82,234.15,745.36,226.5,750.62,227.88Z" transform="translate(-360.43 30)"/><path class="cls-1" d="M686,229.37c-1,10.07-12.85,15.1-19.87,9.74-5.36-3.94-5.83-11.88-1.25-15.49,5.37-4.49,13.28-.87,12.5,5.47-.32,3.55-3.89,5.64-5.91,3.87,7.73-4.66-.14-10.39-3.76-6.23-2.08,2.2-1.28,6.21,1.52,7.9,3.6,2.26,9.9-.58,10.12-5.88C679.51,224.28,686.45,224.56,686,229.37Z" transform="translate(-360.43 30)"/><path class="cls-1" d="M579.71,272.09c-14.59-2-21.21-19.55-13-29.44,6-7.57,17.6-7.8,22.59-.93,6.23,8.06.5,19.36-8.68,17.87-5.13-.67-8-6-5.28-8.83,6.32,11.52,15.11.4,9.28-5.1-3.08-3.15-9-2.22-11.58,1.75-3.5,5.11.28,14.43,8,15C587.48,263,586.69,273.06,579.71,272.09Z" transform="translate(-360.43 30)"/><path class="cls-1" d="M501.37,258.54c-12.69-7.2-12.37-25.76-1.21-31.87,8.33-4.76,19.06-.74,21.13,7.41,2.79,9.7-6.62,18-14.52,13.27-4.48-2.49-5.14-8.42-1.63-10,1.61,12.91,13.77,5.89,10.4-1.31-1.68-4-7.43-5.32-11.29-2.62-5.09,3.43-5,13.39,1.82,16.77C511.85,253,507.43,262,501.37,258.54Z" transform="translate(-360.43 30)"/><path class="cls-1" d="M434.14,247.12c-7.75,9.84-23.46,7.18-27.21-3.09-3-7.68,1.84-16.27,9-17,8.59-1.11,14.43,7.94,9.39,14-2.69,3.48-7.81,3.28-8.74.09,11.17.3,6.78-10.92.23-9-3.63.91-5.47,5.62-3.68,9.25,2.25,4.76,10.71,6,14.47.62C430.79,237.51,437.84,242.42,434.14,247.12Z" transform="translate(-360.43 30)"/><path class="cls-1" d="M1554.46,163.9c-9.4,4.94-20.63-2.54-20-11.78.36-7,7-12,12.84-10,7,2.11,8.42,11.13,2.42,14.11-3.28,1.76-7.18-.16-6.79-2.95,8.53,4.09,9-6.11,3.28-6.88-3.12-.55-6.17,2.45-6,5.88.1,4.46,6.22,8.33,11,5.47C1555.19,155.31,1559,161.54,1554.46,163.9Z" transform="translate(-360.43 30)"/><path class="cls-1" d="M1475.71,143.22c4.44,10.15-4.2,21.28-13.77,19.92-7.22-.9-11.91-8.23-9.47-14.12,2.72-7.17,12.22-7.94,14.87-1.46,1.59,3.55-.71,7.46-3.59,6.85,4.91-8.58-5.68-9.85-6.91-3.94-.81,3.21,2.09,6.62,5.67,6.73,4.65.24,9.15-5.85,6.52-11C1466.82,141.81,1473.59,138.37,1475.71,143.22Z" transform="translate(-360.43 30)"/><path class="cls-1" d="M1355.79,170.47c-2.48-10,7.22-18.9,15.79-16.13,6.5,2,9.65,9.44,6.48,14.47-3.64,6.15-12.48,5.36-13.9-1-.89-3.51,1.84-6.74,4.38-5.73-5.86,7.11,3.67,10,5.74,4.72,1.24-2.83-.88-6.41-4.15-7.09-4.24-.95-9.33,3.93-7.74,9.1C1363.73,173.16,1357,175.26,1355.79,170.47Z" transform="translate(-360.43 30)"/><path class="cls-1" d="M1306.84,148.77c-1.48,9-12.45,12.86-18.46,7.63-4.61-3.86-4.57-11-.24-14,5.1-3.74,12,0,11,5.66-.5,3.17-3.84,4.85-5.56,3.14,7.24-3.75.48-9.37-3-5.83-2,1.86-1.52,5.52.91,7.2,3.11,2.25,9,.05,9.46-4.71C1301.31,143.82,1307.55,144.46,1306.84,148.77Z" transform="translate(-360.43 30)"/><path class="cls-1" d="M1208.52,170c-9.85-.09-15.75-11.14-11.16-18.4,3.35-5.54,11-6.68,14.9-2.56,4.82,4.82,2,12.8-4.22,12.6-3.46,0-5.8-3.29-4.26-5.41,5.18,7.1,10.06-1,5.71-4.17-2.31-1.83-6.13-.71-7.52,2.15-1.88,3.69,1.42,9.55,6.57,9.3C1212.89,163.28,1213.22,170,1208.52,170Z" transform="translate(-360.43 30)"/><path class="cls-1" d="M1141.92,141.58c6.31,9.52-.46,22.36-10.42,22.68-7.49.38-13.57-6.22-12.14-12.64,1.49-7.75,11-10.23,14.83-4.14,2.25,3.33.62,7.71-2.41,7.6,3.44-9.58-7.53-9-7.73-2.76-.24,3.4,3.31,6.34,7,5.82,4.77-.59,8.24-7.57,4.66-12.36C1132.64,141.75,1138.9,137,1141.92,141.58Z" transform="translate(-360.43 30)"/><path class="cls-1" d="M1042.43,151.05c7.94,6.67,5.33,19.6-3.26,22.44-6.43,2.25-13.41-1.94-13.82-7.9-.69-7.14,7-11.74,11.86-7.41,2.81,2.32,2.51,6.55-.15,7.24.54-9.24-8.86-5.9-7.44-.43.66,3,4.51,4.68,7.56,3.28,4-1.73,5.23-8.71.88-12C1034.39,153.58,1038.63,147.87,1042.43,151.05Z" transform="translate(-360.43 30)"/><path class="cls-1" d="M953.05,160.59c-3.25-12.59,8.84-23.89,19.67-20.53,8.21,2.39,12.29,11.76,8.36,18.14-4.49,7.79-15.64,6.92-17.51-1.08-1.18-4.42,2.21-8.52,5.43-7.28-7.28,9,4.76,12.48,7.29,5.86,1.53-3.57-1.2-8.06-5.33-8.86-5.35-1.14-11.69,5.08-9.61,11.56C963.1,163.88,954.61,166.61,953.05,160.59Z" transform="translate(-360.43 30)"/><path class="cls-1" d="M881,163.72c-7.76,4.74-17.77-1-17.73-9-.07-6,5.36-10.61,10.43-9.28,6.12,1.42,7.81,9.05,2.84,11.93-2.71,1.69-6.15.25-6-2.15,7.52,3,7.37-5.72,2.43-6.07-2.7-.29-5.14,2.44-4.84,5.37.33,3.8,5.78,6.78,9.69,4.07C881.16,156.34,884.72,161.46,881,163.72Z" transform="translate(-360.43 30)"/><path class="cls-1" d="M800.82,138.24c7.38,5,6.33,16.22-.73,19.41-5.28,2.51-11.61-.43-12.5-5.47-1.24-6,4.86-10.63,9.44-7.39,2.6,1.72,2.73,5.35.52,6.18-.37-7.92-8.08-4.21-6.37.31.83,2.52,4.26,3.58,6.73,2.11,3.25-1.84,3.67-7.89-.33-10.26C794.2,141.12,797.3,135.88,800.82,138.24Z" transform="translate(-360.43 30)"/><path class="cls-1" d="M688.21,173.66c-3.26-11.41,7.49-22,17.45-19.19,7.55,2,11.49,10.42,8.06,16.34-3.91,7.22-14.11,6.68-16-.57-1.18-4,1.81-7.82,4.78-6.76-6.42,8.41,4.64,11.26,6.79,5.16,1.31-3.29-1.29-7.32-5.07-7.95-4.91-.91-10.54,4.91-8.49,10.78C697.45,176.42,689.77,179.11,688.21,173.66Z" transform="translate(-360.43 30)"/><path class="cls-1" d="M633.76,140.46c7.1,5.92,4.82,17.45-2.83,20-5.73,2-12-1.68-12.34-7-.64-6.36,6.15-10.48,10.55-6.65,2.51,2.06,2.25,5.84-.12,6.46.45-8.24-7.92-5.23-6.63-.36.6,2.7,4,4.15,6.74,2.9,3.56-1.56,4.64-7.78.76-10.66C626.6,142.73,630.37,137.63,633.76,140.46Z" transform="translate(-360.43 30)"/><path class="cls-1" d="M539.45,166.05c-9-5.36-8.46-18.65-.36-22.85,6-3.28,13.66-.23,15,5.64,1.84,7-5,12.79-10.61,9.28-3.17-1.86-3.56-6.12-1-7.23.94,9.28,9.76,4.44,7.47-.77-1.14-2.91-5.24-3.93-8.05-2.05-3.7,2.37-3.81,9.5,1,12C547.05,162.24,543.74,168.61,539.45,166.05Z" transform="translate(-360.43 30)"/><path class="cls-1" d="M468.88,157.89c-1.51,10.91-14.6,15.86-22,9.74-5.66-4.51-5.83-13.15-.71-16.88,6-4.65,14.47-.38,13.36,6.48-.5,3.84-4.47,6-6.59,4,8.6-4.73.29-11.3-3.82-6.93-2.35,2.3-1.66,6.69,1.32,8.65,3.81,2.61,10.78-.22,11.24-6C462.07,152.09,469.6,152.69,468.88,157.89Z" transform="translate(-360.43 30)"/><path class="cls-1" d="M363.19,162c.15-13.43,15.24-21.43,25.13-15.16,7.54,4.59,9.08,15,3.45,20.32-6.58,6.56-17.46,2.69-17.17-5.79,0-4.72,4.5-7.89,7.38-5.79-9.69,7,1.38,13.72,5.68,7.8,2.49-3.14,1-8.35-2.92-10.26-5-2.58-13,1.91-12.69,8.93C372.32,168,363.12,168.39,363.19,162Z" transform="translate(-360.43 30)"/><path class="cls-1" d="M1500.7,102.34c-14.55-1.59-21.63-18.8-13.78-28.86,5.78-7.69,17.25-8.25,22.4-1.58,6.42,7.83,1.06,19.21-8.09,18-5.12-.51-8.09-5.71-5.5-8.61,6.61,11.26,15,0,9.06-5.33-3.15-3-9-2-11.44,2.07-3.33,5.18.69,14.32,8.34,14.72C1508.15,93.07,1507.65,103.09,1500.7,102.34Z" transform="translate(-360.43 30)"/><path class="cls-1" d="M1418.78,92.3c-11.88-.2-18.9-13.59-13.3-22.32,4.09-6.66,13.34-8,18-3,5.78,5.86,2.3,15.47-5.2,15.17-4.18,0-7-4-5.09-6.56,6.19,8.61,12.14-1.16,6.93-5-2.78-2.22-7.4-.91-9.1,2.53-2.31,4.44,1.63,11.54,7.85,11.29C1424.12,84.24,1424.46,92.39,1418.78,92.3Z" transform="translate(-360.43 30)"/><path class="cls-1" d="M1317.7,98c-6.94-14.41,4.92-30.94,18.8-29.48,10.47.91,17.64,11.23,14.43,19.86-3.55,10.48-17.21,12.1-21.38,2.91-2.48-5,.62-10.81,4.81-10.08-6.62,12.64,8.72,13.9,10.19,5.31,1-4.67-3.38-9.43-8.55-9.41-6.72-.09-12.88,8.93-8.82,16.26C1330.61,99.51,1321,104.84,1317.7,98Z" transform="translate(-360.43 30)"/><path class="cls-1" d="M1236.16,102c-10.63-9.61-6.36-27.33,5.64-30.8,9-2.78,18.43,3.36,18.68,11.61.59,9.89-10.19,15.85-16.75,9.63-3.77-3.35-3.14-9.18.58-10-1.22,12.72,11.93,8.59,10.25,1-.76-4.22-6-6.69-10.27-4.92-5.61,2.19-7.67,11.75-1.83,16.46C1247.39,98.91,1241.24,106.58,1236.16,102Z" transform="translate(-360.43 30)"/><path class="cls-1" d="M1157.4,91.06c-9-7.08-6.58-21.43,2.8-24.86,7-2.72,14.86,1.66,15.52,8.22,1,7.85-7.25,13.19-12.82,8.6-3.19-2.46-3-7.14-.09-8-.27,10.21,10,6.19,8.22.21-.83-3.31-5.13-5-8.45-3.35-4.35,2.05-5.47,9.79-.55,13.22C1166.18,88,1161.7,94.44,1157.4,91.06Z" transform="translate(-360.43 30)"/><path class="cls-1" d="M1071.88,74.65c3.16-12.48,19-16.56,26.84-8.49,6,6,5.08,16-1.36,19.72-7.6,4.64-16.87-1.42-14.7-9.25,1.08-4.4,6-6.35,8.18-3.74-10.62,4.38-1.8,13.09,3.55,8.54,3-2.37,2.78-7.56-.42-10.22-4.1-3.53-12.56-1.14-13.84,5.47C1079.05,82.27,1070.38,80.61,1071.88,74.65Z" transform="translate(-360.43 30)"/><path class="cls-1" d="M994.22,67.88c-.45-8.6,8.88-14.35,15.47-10.74,5,2.63,6.43,9.25,3,12.87-3.94,4.47-11.07,2.44-11.23-3-.18-3,2.56-5.24,4.49-4-5.92,4.91,1.44,8.72,4,4.76,1.46-2.12.28-5.39-2.29-6.45-3.33-1.45-8.26,1.76-7.77,6.24C1000.31,71.33,994.44,72,994.22,67.88Z" transform="translate(-360.43 30)"/><path class="cls-1" d="M931.92,88.27c-5.58,13.85-24.45,16-32.16,5.55-6-7.81-3.33-19.24,4.65-22.45,9.47-4.13,19.16,4.28,15.44,12.94-1.93,4.88-7.86,6.36-10,3C922.75,84,914,72.56,907.13,77c-3.85,2.25-4.39,8.26-1.12,11.81,4.16,4.7,14.25,3.28,16.76-4.12C924.89,78.39,934.59,81.65,931.92,88.27Z" transform="translate(-360.43 30)"/><path class="cls-1" d="M821.59,91.06c-8.55-3.61-9.72-15.34-3.13-20,4.9-3.62,12-1.88,13.88,3.11,2.48,5.91-2.84,11.85-8.18,9.45-3-1.24-3.87-4.94-1.77-6.22,2,8,9.12,2.69,6.47-1.6-1.37-2.41-5.09-2.81-7.32-.81-3,2.53-2.18,8.81,2.39,10.44C827.79,86.79,825.67,92.78,821.59,91.06Z" transform="translate(-360.43 30)"/><path class="cls-1" d="M765.14,74.75c-5,9.61-18.81,9.85-23.64,1.71-3.74-6.06-1-14.13,5-15.88C753.6,58.26,760,65,756.7,71c-1.74,3.39-6.13,4-7.43,1.46,9.55-1.52,4-10.37-1.24-7.69-2.94,1.35-3.76,5.65-1.65,8.46,2.67,3.69,10.07,3.39,12.41-1.79C760.76,67.11,767.54,70.16,765.14,74.75Z" transform="translate(-360.43 30)"/><path class="cls-1" d="M671.54,70.38c3.69,9.83-5,19.93-14,18.16-6.79-1.21-10.86-8.37-8.26-13.83,2.94-6.64,12-6.89,14.14-.64,1.33,3.45-1,7-3.73,6.31,5.06-7.88-4.89-9.6-6.35-4.08-.92,3,1.65,6.37,5,6.66,4.39.45,8.94-5.08,6.72-10.11C663.2,68.61,669.78,65.69,671.54,70.38Z" transform="translate(-360.43 30)"/><path class="cls-1" d="M605.13,65.34C603.89,77.09,590,82.86,581.87,76.56c-6.23-4.64-6.72-13.91-1.35-18.09,6.3-5.2,15.51-.91,14.56,6.48-.4,4.14-4.59,6.55-6.94,4.47,9.07-5.38-.08-12.12-4.33-7.3-2.44,2.55-1.55,7.24,1.71,9.23,4.19,2.67,11.56-.61,11.85-6.78C597.62,59.35,605.72,59.72,605.13,65.34Z" transform="translate(-360.43 30)"/><path class="cls-1" d="M508.12,95.18c-12.39,5.5-26.07-5-24.47-16.69,1.05-8.84,10-14.64,17.2-11.69,8.78,3.28,9.8,14.88,1.9,18.17-4.34,2-9.13-.81-8.41-4.33,10.53,5.93,12-7,4.77-8.49-3.93-1-8.08,2.61-8.19,7-.26,5.69,7.22,11.14,13.53,7.9C509.77,84.3,514,92.55,508.12,95.18Z" transform="translate(-360.43 30)"/><path class="cls-1" d="M417,90.5C406.65,93,397.58,82.85,400.53,74c2.09-6.7,9.85-9.88,15-6.55,6.32,3.81,5.42,13-1.17,14.34-3.65.9-7-2-5.88-4.58,7.29,6.13,10.31-3.69,4.92-5.87-2.9-1.32-6.63.84-7.35,4.21-1,4.37,4,9.68,9.32,8.09C419.9,82.31,422,89.32,417,90.5Z" transform="translate(-360.43 30)"/><path class="cls-1" d="M1553.12,18.35c-13.62,7.68-30.48-2.86-29.93-16.48.23-10.28,9.85-17.91,18.47-15.32,10.45,2.81,12.88,16,4.18,20.67-4.77,2.74-10.58.07-10.14-4.06,12.75,5.66,13-9.38,4.55-10.27-4.62-.67-9,3.88-8.64,8.92.33,6.57,9.51,12,16.4,7.59C1553.82,5.67,1559.63,14.69,1553.12,18.35Z" transform="translate(-360.43 30)"/><path class="cls-1" d="M1475.82-17.81c9.66,12.39,1.71,30.72-11.9,32.2-10.24,1.31-19.27-7.1-18-16,1.22-10.8,14-15.2,19.9-7.24,3.44,4.32,1.66,10.5-2.51,10.67,3.72-13.51-11.27-11.52-10.89-3,0,4.69,5.21,8.34,10.16,7.24,6.48-1.31,10.51-11.24,5.09-17.43C1463.11-16.61,1471.2-23.72,1475.82-17.81Z" transform="translate(-360.43 30)"/><path class="cls-1" d="M1384.81,16.45c-12.87,7.32-28.87-2.6-28.39-15.5.18-9.73,9.26-17,17.43-14.56,9.9,2.61,12.25,15.12,4,19.55-4.5,2.6-10,.1-9.61-3.81,12.09,5.32,12.29-8.93,4.27-9.74-4.38-.62-8.5,3.71-8.15,8.48.34,6.21,9,11.33,15.56,7.12C1385.43,4.44,1391,13,1384.81,16.45Z" transform="translate(-360.43 30)"/><path class="cls-1" d="M1274.27-4.35c3.63-11.37,18.53-14.23,25.3-6.33,5.2,5.87,3.79,15.13-2.38,18.16-7.29,3.86-15.52-2.27-13.06-9.39,1.24-4,5.87-5.53,7.77-3-10.07,3.45-2.4,12,2.79,8.1,2.94-2,3-6.84.2-9.48-3.6-3.5-11.56-1.77-13.11,4.28C1280.46,3.1,1272.53,1.08,1274.27-4.35Z" transform="translate(-360.43 30)"/><path class="cls-1" d="M1201.16,20.59c-13.53-7.62-13.26-27.37-1.39-33.91,8.84-5.09,20.27-.84,22.51,7.82,3,10.31-7,19.18-15.41,14.17C1202.09,6,1201.37-.28,1205.1-2c1.75,13.74,14.67,6.23,11.07-1.43-1.81-4.27-7.93-5.64-12-2.75-5.41,3.66-5.3,14.26,2,17.84C1212.29,14.66,1207.62,24.23,1201.16,20.59Z" transform="translate(-360.43 30)"/><path class="cls-1" d="M1137.52-26.52c4.81,7.35-.47,17.19-8.13,17.39-5.77.25-10.4-4.86-9.27-9.79,1.18-6,8.5-7.81,11.43-3.11,1.71,2.57.43,5.93-1.9,5.84,2.7-7.36-5.74-6.95-5.93-2.17-.2,2.61,2.51,4.89,5.32,4.51,3.67-.43,6.38-5.78,3.65-9.48C1130.38-26.45,1135.22-30,1137.52-26.52Z" transform="translate(-360.43 30)"/><path class="cls-1" d="M1073.11-4.46c-8.37,13.64-28.7,12.6-35,.13-4.9-9.3-.09-20.92,8.91-22.89,10.75-2.69,19.5,7.93,14,16.42-2.91,4.82-9.43,5.32-11.09,1.41,14.22-1.28,7-14.87-1-11.45-4.47,1.69-6.11,7.94-3.29,12.28,3.56,5.71,14.48,6,18.45-1.37C1067.43-16.16,1077.1-11,1073.11-4.46Z" transform="translate(-360.43 30)"/><path class="cls-1" d="M977.81-25.8c5.11,10.43-3.43,22.48-13.51,21.49-7.6-.62-12.85-8.07-10.56-14.36,2.53-7.62,12.43-8.86,15.5-2.2,1.83,3.65-.4,7.84-3.44,7.34,4.74-9.21-6.4-10.06-7.42-3.81-.7,3.39,2.49,6.83,6.24,6.78,4.89,0,9.31-6.54,6.33-11.83C968.44-26.86,975.37-30.78,977.81-25.8Z" transform="translate(-360.43 30)"/><path class="cls-1" d="M897.85-6.56c-5,13.08-22.6,15.5-30,5.81-5.73-7.19-3.49-17.95,3.92-21.11,8.79-4.05,18,3.64,14.71,11.82-1.71,4.61-7.23,6.11-9.29,3,12-3.41,3.57-13.91-2.76-9.67-3.56,2.19-4,7.82-.83,11.09,4,4.32,13.42,2.8,15.62-4.18C891.07-15.68,900.22-12.81,897.85-6.56Z" transform="translate(-360.43 30)"/><path class="cls-1" d="M799.73,19.39C784.22,22.44,771.38,7,776.23-5.92c3.47-9.79,15.12-14.07,22.58-8.85,9.14,6,7.29,19.46-2.54,21.16-5.45,1.12-10.18-3.28-8.45-7.1,10.45,9.47,15.47-4.89,7.62-8.43-4.22-2.11-9.86.88-11.12,5.83-1.76,6.41,5.33,14.54,13.34,12.49C804.43,7.44,807.14,17.93,799.73,19.39Z" transform="translate(-360.43 30)"/><path class="cls-1" d="M708.34,8.55c-11.74-1.12-17.63-14.91-11.42-23.1,4.57-6.26,13.81-6.84,18-1.52C720.21-9.83,716-.6,708.63-1.48c-4.13-.36-6.58-4.52-4.52-6.88,5.45,9,12.09-.2,7.24-4.4-2.57-2.41-7.24-1.47-9.2,1.8C699.53-6.75,702.87.57,709,.8,714.24,1,714,9.08,708.34,8.55Z" transform="translate(-360.43 30)"/><path class="cls-1" d="M615.75,7c-9.18-4.25-10-17.09-2.67-22,5.48-3.76,13.12-1.6,15,3.9,2.48,6.55-3.54,12.83-9.27,10-3.24-1.47-4-5.53-1.71-6.86C619,.91,627-4.64,624.24-9.42c-1.39-2.68-5.44-3.25-8-1.16C613-7.92,613.59-1,618.52.9,622.67,2.54,620.14,9,615.75,7Z" transform="translate(-360.43 30)"/><path class="cls-1" d="M550-21c10,7.74,7.43,23.6-2.89,27.46-7.73,3-16.43-1.72-17.2-9C528.75-11.13,537.83-17.08,544-12c3.54,2.69,3.37,7.85.16,8.81.22-11.26-11.07-6.75-9.08-.16.95,3.65,5.71,5.48,9.36,3.64,4.78-2.31,6-10.85.51-14.6C540.37-17.52,545.26-24.67,550-21Z" transform="translate(-360.43 30)"/><path class="cls-1" d="M468-29.77c12.45,3.63,16,19.73,7.57,27.3-6.22,5.82-16.32,4.54-19.79-2.07-4.39-7.82,2-16.93,9.84-14.46,4.39,1.24,6.18,6.24,3.47,8.36-4-10.83-13.11-2.27-8.73,3.26,2.28,3.13,7.52,3.08,10.3,0,3.71-4,1.61-12.61-5-14.13C460.1-22.84,462.08-31.5,468-29.77Z" transform="translate(-360.43 30)"/><path class="cls-1" d="M383,9.28c-14-.21-22.28-16-15.7-26.26,4.82-7.84,15.7-9.4,21.2-3.5,6.81,6.88,2.72,18.2-6.11,17.86-4.92,0-8.21-4.72-6-7.71,7.3,10.13,14.3-1.38,8.15-5.89-3.27-2.61-8.7-1.05-10.71,3C371.1-8,375.74.36,383.06.05,389.24-.21,389.66,9.38,383,9.28Z" transform="translate(-360.43 30)"/></svg>