<svg id="Layer_1" data-name="Layer 1" xmlns="http://www.w3.org/2000/svg" viewBox="0 0 84.76 80"><defs><style>.cls-1{fill:#1f2937;}</style></defs><title>questionsmarks-patterns</title><path class="cls-1" d="M17.75,29.18A3.78,3.78,0,0,1,17.21,27a13.9,13.9,0,0,1,.57-2.73,12.1,12.1,0,0,0,.49-2.1,2.47,2.47,0,0,0-.29-1.5,1.83,1.83,0,0,0-1.21-.93,2.31,2.31,0,0,0-1.67.34,2,2,0,0,0-1.19,1.68,3.54,3.54,0,0,0,.5,1.88l0,.07-3.53,2,0-.07a6.25,6.25,0,0,1-.83-5,6.46,6.46,0,0,1,3.23-3.83,7.62,7.62,0,0,1,3.19-1,5.22,5.22,0,0,1,2.85.56,5,5,0,0,1,2.06,2A4.85,4.85,0,0,1,22,20.25,5.65,5.65,0,0,1,22,22a15.16,15.16,0,0,1-.54,1.85,11.45,11.45,0,0,0-.52,2,2.2,2.2,0,0,0,.29,1.41l.13.23-3.45,2Zm3,4.2a2.17,2.17,0,0,1-1.47-2.57,1.94,1.94,0,0,1,1-1.27,2,2,0,0,1,1.61-.23,2,2,0,0,1,1.27,1,2.09,2.09,0,0,1-.79,2.87A2,2,0,0,1,20.77,33.38Z" transform="translate(-7.62 -10)"/><path class="cls-1" d="M79.6,81.61a3.73,3.73,0,0,1,1.26-1.89,14,14,0,0,1,2.38-1.44,11.3,11.3,0,0,0,1.87-1.07A2.35,2.35,0,0,0,86,76a1.8,1.8,0,0,0-.13-1.51,2.29,2.29,0,0,0-1.39-1,2,2,0,0,0-2,.26,3.56,3.56,0,0,0-1,1.65l0,.07-3.87-1.2,0-.07a6.31,6.31,0,0,1,3.08-4,6.43,6.43,0,0,1,5-.23,7.54,7.54,0,0,1,2.94,1.63A5.24,5.24,0,0,1,90.08,74a5.13,5.13,0,0,1-.09,2.9,4.83,4.83,0,0,1-.93,1.74,5.3,5.3,0,0,1-1.3,1.11,15,15,0,0,1-1.72.88,10.21,10.21,0,0,0-1.8,1,2.26,2.26,0,0,0-.84,1.18l-.07.24-3.8-1.18Zm-1,5.09a2.11,2.11,0,0,1-.12-1.6,2.08,2.08,0,0,1,1-1.24,2,2,0,0,1,1.6-.14,2,2,0,0,1,1.26,1,2,2,0,0,1,.14,1.6,2.1,2.1,0,0,1-2.64,1.37A2,2,0,0,1,78.58,86.7Z" transform="translate(-7.62 -10)"/><path class="cls-1" d="M50,34.49a6.82,6.82,0,0,1-1-4,25.6,25.6,0,0,1,1-5,20.78,20.78,0,0,0,.9-3.84,4.42,4.42,0,0,0-.54-2.74,3.28,3.28,0,0,0-2.2-1.7,4.21,4.21,0,0,0-3,.63c-1.45.83-2.18,1.85-2.19,3.05a6.66,6.66,0,0,0,.91,3.45l.08.13-6.44,3.69L37.47,28q-2.76-4.8-1.52-9.1a11.81,11.81,0,0,1,5.91-7A13.69,13.69,0,0,1,47.69,10a9.56,9.56,0,0,1,5.21,1,9.32,9.32,0,0,1,3.77,3.73,8.62,8.62,0,0,1,1.17,3.41,10,10,0,0,1-.12,3.12,29.12,29.12,0,0,1-1,3.39,18.68,18.68,0,0,0-1,3.6,4,4,0,0,0,.52,2.58l.24.41L50.25,34.9Zm5.54,7.7a4,4,0,0,1-2.71-4.71,3.62,3.62,0,0,1,1.8-2.32,3.72,3.72,0,0,1,3-.41,3.65,3.65,0,0,1,2.32,1.8,3.82,3.82,0,0,1-1.46,5.25A3.57,3.57,0,0,1,55.55,42.19Z" transform="translate(-7.62 -10)"/><path class="cls-1" d="M56.19,69.87a5.52,5.52,0,0,1,1.52-3A20.33,20.33,0,0,1,61,64.35a16.34,16.34,0,0,0,2.57-1.89,3.59,3.59,0,0,0,1.12-2,2.67,2.67,0,0,0-.46-2.21A3.43,3.43,0,0,0,62,57.07a3,3,0,0,0-3,.72,5.37,5.37,0,0,0-1.26,2.61l0,.11-5.9-1.12,0-.11a9.34,9.34,0,0,1,3.86-6.4,9.6,9.6,0,0,1,7.32-1.18,11.11,11.11,0,0,1,4.58,1.91A7.7,7.7,0,0,1,70.32,57a7.52,7.52,0,0,1,.36,4.28A7,7,0,0,1,69.6,64a8.15,8.15,0,0,1-1.72,1.86,24,24,0,0,1-2.38,1.57A16.16,16.16,0,0,0,63,69.1,3.23,3.23,0,0,0,62,71l-.08.37-5.78-1.1Zm-.66,7.64a3.24,3.24,0,0,1,.83-4.32,2.9,2.9,0,0,1,2.33-.47,3.1,3.1,0,1,1-1.16,6.09A2.94,2.94,0,0,1,55.53,77.51Z" transform="translate(-7.62 -10)"/><path class="cls-1" d="M83.53,43.11a5.55,5.55,0,0,1-.13-3.36A20,20,0,0,1,85,36a17.55,17.55,0,0,0,1.33-2.9,3.57,3.57,0,0,0,0-2.26,2.68,2.68,0,0,0-1.48-1.71,3.44,3.44,0,0,0-2.51,0,2.93,2.93,0,0,0-2.23,2.08,5.35,5.35,0,0,0,.17,2.88l0,.11-5.7,1.91,0-.11a9.3,9.3,0,0,1,.26-7.47,9.57,9.57,0,0,1,5.8-4.6,11,11,0,0,1,4.93-.57,7.72,7.72,0,0,1,4,1.63A7.59,7.59,0,0,1,92,28.52a7.15,7.15,0,0,1,.39,2.9,8.23,8.23,0,0,1-.6,2.45,24.11,24.11,0,0,1-1.31,2.54,16.49,16.49,0,0,0-1.34,2.7,3.34,3.34,0,0,0,0,2.14l.12.36-5.59,1.87Zm3.16,7a3.05,3.05,0,0,1-1.51-1.82,3,3,0,0,1,.12-2.36,2.91,2.91,0,0,1,1.8-1.55,3,3,0,0,1,2.41.15,3,3,0,0,1,1.55,1.8,3.08,3.08,0,0,1-.16,2.36,3,3,0,0,1-1.84,1.57A2.91,2.91,0,0,1,86.69,50.11Z" transform="translate(-7.62 -10)"/><path class="cls-1" d="M26.28,79.86A8.83,8.83,0,0,1,25,74.65a33.55,33.55,0,0,1,1.34-6.44,28.12,28.12,0,0,0,1.17-5,5.71,5.71,0,0,0-.7-3.55A4.29,4.29,0,0,0,24,57.5a5.44,5.44,0,0,0-3.93.81q-2.8,1.62-2.84,3.95a8.61,8.61,0,0,0,1.19,4.46l.09.16-8.31,4.77-.1-.16q-3.55-6.19-2-11.75t7.64-9a17.65,17.65,0,0,1,7.53-2.46A12.41,12.41,0,0,1,30,49.56a12,12,0,0,1,4.87,4.81,11.39,11.39,0,0,1,1.52,4.41,13,13,0,0,1-.16,4A36,36,0,0,1,35,67.19a25.18,25.18,0,0,0-1.24,4.65,5.2,5.2,0,0,0,.69,3.34l.3.53-8.15,4.68Zm7.15,10a5.17,5.17,0,0,1-3.49-6.09,4.61,4.61,0,0,1,2.33-3,4.89,4.89,0,0,1,3.81-.53,5,5,0,0,1,3.48,6.06,4.83,4.83,0,0,1-2.37,3A4.67,4.67,0,0,1,33.43,89.81Z" transform="translate(-7.62 -10)"/></svg>